<svg width="1361" height="1514" viewBox="0 0 1361 1514" fill="none" xmlns="http://www.w3.org/2000/svg">
<g opacity="0.2" filter="url(#filter0_f_175_190)">
<ellipse cx="690.5" cy="757.377" rx="670.5" ry="356.377" fill="#338AF3"/>
</g>
<path d="M89.0349 951.857C90.5302 951.857 91.6622 952.499 92.4308 953.783C93.2134 955.053 93.6047 956.901 93.6047 959.327C93.6047 961.754 93.2134 963.609 92.4308 964.893C91.6622 966.176 90.5302 966.818 89.0349 966.818C87.5536 966.818 86.4216 966.176 85.639 964.893C84.8564 963.609 84.4651 961.754 84.4651 959.327C84.4651 956.915 84.8564 955.067 85.639 953.783C86.4216 952.499 87.5536 951.857 89.0349 951.857ZM85.9534 959.327C85.9534 961.048 86.1072 962.396 86.4146 963.369L91.0683 953.995C90.5791 953.332 89.9013 953 89.0349 953C88.0706 953 87.316 953.522 86.771 954.566C86.2259 955.596 85.9534 957.183 85.9534 959.327ZM89.0349 965.654C90.0131 965.654 90.7748 965.139 91.3198 964.11C91.8648 963.066 92.1373 961.471 92.1373 959.327C92.1373 957.507 91.9627 956.097 91.6133 955.095L86.9596 964.554C87.4627 965.288 88.1545 965.654 89.0349 965.654Z" fill="url(#paint0_linear_175_190)" fill-opacity="0.6"/>
<path d="M90.2926 989.669H93.3741V990.79H85.3874V989.669H88.9511V977.776L85.5551 979.829L84.9682 978.877L89.1607 976.253H90.2926V989.669Z" fill="url(#paint1_linear_175_190)" fill-opacity="0.6"/>
<path d="M89.0349 1000.23C90.5302 1000.23 91.6622 1000.87 92.4308 1002.15C93.2134 1003.42 93.6047 1005.27 93.6047 1007.69C93.6047 1010.12 93.2134 1011.98 92.4308 1013.26C91.6622 1014.54 90.5302 1015.19 89.0349 1015.19C87.5536 1015.19 86.4216 1014.54 85.639 1013.26C84.8564 1011.98 84.4651 1010.12 84.4651 1007.69C84.4651 1005.28 84.8564 1003.43 85.639 1002.15C86.4216 1000.87 87.5536 1000.23 89.0349 1000.23ZM85.9534 1007.69C85.9534 1009.42 86.1072 1010.76 86.4146 1011.74L91.0683 1002.36C90.5791 1001.7 89.9013 1001.37 89.0349 1001.37C88.0706 1001.37 87.316 1001.89 86.771 1002.93C86.2259 1003.96 85.9534 1005.55 85.9534 1007.69ZM89.0349 1014.02C90.0131 1014.02 90.7748 1013.51 91.3198 1012.48C91.8648 1011.43 92.1373 1009.84 92.1373 1007.69C92.1373 1005.88 91.9627 1004.46 91.6133 1003.46L86.9596 1012.92C87.4627 1013.66 88.1545 1014.02 89.0349 1014.02Z" fill="url(#paint2_linear_175_190)" fill-opacity="0.6"/>
<path d="M90.2926 1038.04H93.3741V1039.16H85.3874V1038.04H88.9511V1026.14L85.5551 1028.2L84.9682 1027.24L89.1607 1024.62H90.2926V1038.04Z" fill="url(#paint3_linear_175_190)" fill-opacity="0.6"/>
<path d="M90.2926 1062.22H93.3741V1063.34H85.3874V1062.22H88.9511V1050.33L85.5551 1052.38L84.9682 1051.43L89.1607 1048.8H90.2926V1062.22Z" fill="url(#paint4_linear_175_190)" fill-opacity="0.6"/>
<path d="M89.0349 1072.78C90.5302 1072.78 91.6622 1073.42 92.4308 1074.7C93.2134 1075.97 93.6047 1077.82 93.6047 1080.25C93.6047 1082.67 93.2134 1084.53 92.4308 1085.81C91.6622 1087.1 90.5302 1087.74 89.0349 1087.74C87.5536 1087.74 86.4216 1087.1 85.639 1085.81C84.8564 1084.53 84.4651 1082.67 84.4651 1080.25C84.4651 1077.83 84.8564 1075.99 85.639 1074.7C86.4216 1073.42 87.5536 1072.78 89.0349 1072.78ZM85.9534 1080.25C85.9534 1081.97 86.1072 1083.31 86.4146 1084.29L91.0683 1074.91C90.5791 1074.25 89.9013 1073.92 89.0349 1073.92C88.0706 1073.92 87.316 1074.44 86.771 1075.49C86.2259 1076.51 85.9534 1078.1 85.9534 1080.25ZM89.0349 1086.57C90.0131 1086.57 90.7748 1086.06 91.3198 1085.03C91.8648 1083.98 92.1373 1082.39 92.1373 1080.25C92.1373 1078.43 91.9627 1077.02 91.6133 1076.01L86.9596 1085.47C87.4627 1086.21 88.1545 1086.57 89.0349 1086.57Z" fill="url(#paint5_linear_175_190)" fill-opacity="0.6"/>
<path d="M90.2926 1110.59H93.3741V1111.71H85.3874V1110.59H88.9511V1098.7L85.5551 1100.75L84.9682 1099.8L89.1607 1097.17H90.2926V1110.59Z" fill="url(#paint6_linear_175_190)" fill-opacity="0.6"/>
<path d="M89.0349 1121.14C90.5302 1121.14 91.6622 1121.79 92.4308 1123.07C93.2134 1124.34 93.6047 1126.19 93.6047 1128.61C93.6047 1131.04 93.2134 1132.9 92.4308 1134.18C91.6622 1135.46 90.5302 1136.1 89.0349 1136.1C87.5536 1136.1 86.4216 1135.46 85.639 1134.18C84.8564 1132.9 84.4651 1131.04 84.4651 1128.61C84.4651 1126.2 84.8564 1124.35 85.639 1123.07C86.4216 1121.79 87.5536 1121.14 89.0349 1121.14ZM85.9534 1128.61C85.9534 1130.34 86.1072 1131.68 86.4146 1132.66L91.0683 1123.28C90.5791 1122.62 89.9013 1122.29 89.0349 1122.29C88.0706 1122.29 87.316 1122.81 86.771 1123.85C86.2259 1124.88 85.9534 1126.47 85.9534 1128.61ZM89.0349 1134.94C90.0131 1134.94 90.7748 1134.43 91.3198 1133.4C91.8648 1132.35 92.1373 1130.76 92.1373 1128.61C92.1373 1126.79 91.9627 1125.38 91.6133 1124.38L86.9596 1133.84C87.4627 1134.57 88.1545 1134.94 89.0349 1134.94Z" fill="url(#paint7_linear_175_190)" fill-opacity="0.6"/>
<path d="M89.0349 1145.33C90.5302 1145.33 91.6622 1145.97 92.4308 1147.25C93.2134 1148.52 93.6047 1150.37 93.6047 1152.8C93.6047 1155.22 93.2134 1157.08 92.4308 1158.36C91.6622 1159.65 90.5302 1160.29 89.0349 1160.29C87.5536 1160.29 86.4216 1159.65 85.639 1158.36C84.8564 1157.08 84.4651 1155.22 84.4651 1152.8C84.4651 1150.39 84.8564 1148.54 85.639 1147.25C86.4216 1145.97 87.5536 1145.33 89.0349 1145.33ZM85.9534 1152.8C85.9534 1154.52 86.1072 1155.87 86.4146 1156.84L91.0683 1147.47C90.5791 1146.8 89.9013 1146.47 89.0349 1146.47C88.0706 1146.47 87.316 1146.99 86.771 1148.04C86.2259 1149.07 85.9534 1150.65 85.9534 1152.8ZM89.0349 1159.12C90.0131 1159.12 90.7748 1158.61 91.3198 1157.58C91.8648 1156.54 92.1373 1154.94 92.1373 1152.8C92.1373 1150.98 91.9627 1149.57 91.6133 1148.57L86.9596 1158.02C87.4627 1158.76 88.1545 1159.12 89.0349 1159.12Z" fill="url(#paint8_linear_175_190)" fill-opacity="0.6"/>
<path d="M90.2926 1183.14H93.3741V1184.26H85.3874V1183.14H88.9511V1171.25L85.5551 1173.3L84.9682 1172.35L89.1607 1169.72H90.2926V1183.14Z" fill="url(#paint9_linear_175_190)" fill-opacity="0.6"/>
<path d="M89.0349 1193.7C90.5302 1193.7 91.6622 1194.34 92.4308 1195.62C93.2134 1196.89 93.6047 1198.74 93.6047 1201.17C93.6047 1203.59 93.2134 1205.45 92.4308 1206.73C91.6622 1208.01 90.5302 1208.66 89.0349 1208.66C87.5536 1208.66 86.4216 1208.01 85.639 1206.73C84.8564 1205.45 84.4651 1203.59 84.4651 1201.17C84.4651 1198.75 84.8564 1196.91 85.639 1195.62C86.4216 1194.34 87.5536 1193.7 89.0349 1193.7ZM85.9534 1201.17C85.9534 1202.89 86.1072 1204.23 86.4146 1205.21L91.0683 1195.83C90.5791 1195.17 89.9013 1194.84 89.0349 1194.84C88.0706 1194.84 87.316 1195.36 86.771 1196.4C86.2259 1197.43 85.9534 1199.02 85.9534 1201.17ZM89.0349 1207.49C90.0131 1207.49 90.7748 1206.98 91.3198 1205.95C91.8648 1204.9 92.1373 1203.31 92.1373 1201.17C92.1373 1199.35 91.9627 1197.93 91.6133 1196.93L86.9596 1206.39C87.4627 1207.13 88.1545 1207.49 89.0349 1207.49Z" fill="url(#paint10_linear_175_190)" fill-opacity="0.6"/>
<path d="M90.2926 1231.51H93.3741V1232.63H85.3874V1231.51H88.9511V1219.61L85.5551 1221.67L84.9682 1220.72L89.1607 1218.09H90.2926V1231.51Z" fill="url(#paint11_linear_175_190)" fill-opacity="0.6"/>
<path d="M90.2926 1255.69H93.3741V1256.81H85.3874V1255.69H88.9511V1243.8L85.5551 1245.85L84.9682 1244.9L89.1607 1242.27H90.2926V1255.69Z" fill="url(#paint12_linear_175_190)" fill-opacity="0.6"/>
<path d="M127.965 1000.23C129.46 1000.23 130.592 1000.87 131.361 1002.15C132.144 1003.42 132.535 1005.27 132.535 1007.69C132.535 1010.12 132.144 1011.98 131.361 1013.26C130.592 1014.54 129.46 1015.19 127.965 1015.19C126.484 1015.19 125.352 1014.54 124.569 1013.26C123.787 1011.98 123.395 1010.12 123.395 1007.69C123.395 1005.28 123.787 1003.43 124.569 1002.15C125.352 1000.87 126.484 1000.23 127.965 1000.23ZM124.884 1007.69C124.884 1009.42 125.037 1010.76 125.345 1011.74L129.998 1002.36C129.509 1001.7 128.832 1001.37 127.965 1001.37C127.001 1001.37 126.246 1001.89 125.701 1002.93C125.156 1003.96 124.884 1005.55 124.884 1007.69ZM127.965 1014.02C128.943 1014.02 129.705 1013.51 130.25 1012.48C130.795 1011.43 131.068 1009.84 131.068 1007.69C131.068 1005.88 130.893 1004.46 130.543 1003.46L125.89 1012.92C126.393 1013.66 127.085 1014.02 127.965 1014.02Z" fill="url(#paint13_linear_175_190)" fill-opacity="0.6"/>
<path d="M129.223 1038.04H132.304V1039.16H124.318V1038.04H127.881V1026.14L124.485 1028.2L123.898 1027.24L128.091 1024.62H129.223V1038.04Z" fill="url(#paint14_linear_175_190)" fill-opacity="0.6"/>
<path d="M127.965 1048.59C129.46 1048.59 130.592 1049.23 131.361 1050.52C132.144 1051.79 132.535 1053.64 132.535 1056.06C132.535 1058.49 132.144 1060.34 131.361 1061.63C130.592 1062.91 129.46 1063.55 127.965 1063.55C126.484 1063.55 125.352 1062.91 124.569 1061.63C123.787 1060.34 123.395 1058.49 123.395 1056.06C123.395 1053.65 123.787 1051.8 124.569 1050.52C125.352 1049.23 126.484 1048.59 127.965 1048.59ZM124.884 1056.06C124.884 1057.78 125.037 1059.13 125.345 1060.1L129.998 1050.73C129.509 1050.07 128.832 1049.74 127.965 1049.74C127.001 1049.74 126.246 1050.26 125.701 1051.3C125.156 1052.33 124.884 1053.92 124.884 1056.06ZM127.965 1062.39C128.943 1062.39 129.705 1061.87 130.25 1060.84C130.795 1059.8 131.068 1058.21 131.068 1056.06C131.068 1054.24 130.893 1052.83 130.543 1051.83L125.89 1061.29C126.393 1062.02 127.085 1062.39 127.965 1062.39Z" fill="url(#paint15_linear_175_190)" fill-opacity="0.6"/>
<path d="M127.965 1072.78C129.46 1072.78 130.592 1073.42 131.361 1074.7C132.144 1075.97 132.535 1077.82 132.535 1080.25C132.535 1082.67 132.144 1084.53 131.361 1085.81C130.592 1087.1 129.46 1087.74 127.965 1087.74C126.484 1087.74 125.352 1087.1 124.569 1085.81C123.787 1084.53 123.395 1082.67 123.395 1080.25C123.395 1077.83 123.787 1075.99 124.569 1074.7C125.352 1073.42 126.484 1072.78 127.965 1072.78ZM124.884 1080.25C124.884 1081.97 125.037 1083.31 125.345 1084.29L129.998 1074.91C129.509 1074.25 128.832 1073.92 127.965 1073.92C127.001 1073.92 126.246 1074.44 125.701 1075.49C125.156 1076.51 124.884 1078.1 124.884 1080.25ZM127.965 1086.57C128.943 1086.57 129.705 1086.06 130.25 1085.03C130.795 1083.98 131.068 1082.39 131.068 1080.25C131.068 1078.43 130.893 1077.02 130.543 1076.01L125.89 1085.47C126.393 1086.21 127.085 1086.57 127.965 1086.57Z" fill="url(#paint16_linear_175_190)" fill-opacity="0.6"/>
<path d="M129.223 1110.59H132.304V1111.71H124.318V1110.59H127.881V1098.7L124.485 1100.75L123.898 1099.8L128.091 1097.17H129.223V1110.59Z" fill="url(#paint17_linear_175_190)" fill-opacity="0.6"/>
<path d="M127.965 1121.14C129.46 1121.14 130.592 1121.79 131.361 1123.07C132.144 1124.34 132.535 1126.19 132.535 1128.61C132.535 1131.04 132.144 1132.9 131.361 1134.18C130.592 1135.46 129.46 1136.1 127.965 1136.1C126.484 1136.1 125.352 1135.46 124.569 1134.18C123.787 1132.9 123.395 1131.04 123.395 1128.61C123.395 1126.2 123.787 1124.35 124.569 1123.07C125.352 1121.79 126.484 1121.14 127.965 1121.14ZM124.884 1128.61C124.884 1130.34 125.037 1131.68 125.345 1132.66L129.998 1123.28C129.509 1122.62 128.832 1122.29 127.965 1122.29C127.001 1122.29 126.246 1122.81 125.701 1123.85C125.156 1124.88 124.884 1126.47 124.884 1128.61ZM127.965 1134.94C128.943 1134.94 129.705 1134.43 130.25 1133.4C130.795 1132.35 131.068 1130.76 131.068 1128.61C131.068 1126.79 130.893 1125.38 130.543 1124.38L125.89 1133.84C126.393 1134.57 127.085 1134.94 127.965 1134.94Z" fill="url(#paint18_linear_175_190)" fill-opacity="0.6"/>
<path d="M129.223 1158.96H132.304V1160.08H124.318V1158.96H127.881V1147.06L124.485 1149.12L123.898 1148.16L128.091 1145.54H129.223V1158.96Z" fill="url(#paint19_linear_175_190)" fill-opacity="0.6"/>
<path d="M127.965 1169.51C129.46 1169.51 130.592 1170.15 131.361 1171.44C132.144 1172.71 132.535 1174.56 132.535 1176.98C132.535 1179.41 132.144 1181.26 131.361 1182.55C130.592 1183.83 129.46 1184.47 127.965 1184.47C126.484 1184.47 125.352 1183.83 124.569 1182.55C123.787 1181.26 123.395 1179.41 123.395 1176.98C123.395 1174.57 123.787 1172.72 124.569 1171.44C125.352 1170.15 126.484 1169.51 127.965 1169.51ZM124.884 1176.98C124.884 1178.7 125.037 1180.05 125.345 1181.02L129.998 1171.65C129.509 1170.99 128.832 1170.65 127.965 1170.65C127.001 1170.65 126.246 1171.18 125.701 1172.22C125.156 1173.25 124.884 1174.84 124.884 1176.98ZM127.965 1183.31C128.943 1183.31 129.705 1182.79 130.25 1181.76C130.795 1180.72 131.068 1179.13 131.068 1176.98C131.068 1175.16 130.893 1173.75 130.543 1172.75L125.89 1182.21C126.393 1182.94 127.085 1183.31 127.965 1183.31Z" fill="url(#paint20_linear_175_190)" fill-opacity="0.6"/>
<path d="M127.965 1193.7C129.46 1193.7 130.592 1194.34 131.361 1195.62C132.144 1196.89 132.535 1198.74 132.535 1201.17C132.535 1203.59 132.144 1205.45 131.361 1206.73C130.592 1208.01 129.46 1208.66 127.965 1208.66C126.484 1208.66 125.352 1208.01 124.569 1206.73C123.787 1205.45 123.395 1203.59 123.395 1201.17C123.395 1198.75 123.787 1196.91 124.569 1195.62C125.352 1194.34 126.484 1193.7 127.965 1193.7ZM124.884 1201.17C124.884 1202.89 125.037 1204.23 125.345 1205.21L129.998 1195.83C129.509 1195.17 128.832 1194.84 127.965 1194.84C127.001 1194.84 126.246 1195.36 125.701 1196.4C125.156 1197.43 124.884 1199.02 124.884 1201.17ZM127.965 1207.49C128.943 1207.49 129.705 1206.98 130.25 1205.95C130.795 1204.9 131.068 1203.31 131.068 1201.17C131.068 1199.35 130.893 1197.93 130.543 1196.93L125.89 1206.39C126.393 1207.13 127.085 1207.49 127.965 1207.49Z" fill="url(#paint21_linear_175_190)" fill-opacity="0.6"/>
<path d="M129.223 1231.51H132.304V1232.63H124.318V1231.51H127.881V1219.61L124.485 1221.67L123.898 1220.72L128.091 1218.09H129.223V1231.51Z" fill="url(#paint22_linear_175_190)" fill-opacity="0.6"/>
<path d="M127.965 1242.06C129.46 1242.06 130.592 1242.71 131.361 1243.99C132.144 1245.26 132.535 1247.11 132.535 1249.53C132.535 1251.96 132.144 1253.81 131.361 1255.1C130.592 1256.38 129.46 1257.02 127.965 1257.02C126.484 1257.02 125.352 1256.38 124.569 1255.1C123.787 1253.81 123.395 1251.96 123.395 1249.53C123.395 1247.12 123.787 1245.27 124.569 1243.99C125.352 1242.71 126.484 1242.06 127.965 1242.06ZM124.884 1249.53C124.884 1251.25 125.037 1252.6 125.345 1253.57L129.998 1244.2C129.509 1243.54 128.832 1243.21 127.965 1243.21C127.001 1243.21 126.246 1243.73 125.701 1244.77C125.156 1245.8 124.884 1247.39 124.884 1249.53ZM127.965 1255.86C128.943 1255.86 129.705 1255.35 130.25 1254.32C130.795 1253.27 131.068 1251.68 131.068 1249.53C131.068 1247.71 130.893 1246.3 130.543 1245.3L125.89 1254.76C126.393 1255.49 127.085 1255.86 127.965 1255.86Z" fill="url(#paint23_linear_175_190)" fill-opacity="0.6"/>
<path d="M129.223 1279.87H132.304V1281H124.318V1279.87H127.881V1267.98L124.485 1270.03L123.898 1269.08L128.091 1266.46H129.223V1279.87Z" fill="url(#paint24_linear_175_190)" fill-opacity="0.6"/>
<path d="M129.223 1304.06H132.304V1305.18H124.318V1304.06H127.881V1292.17L124.485 1294.22L123.898 1293.27L128.091 1290.64H129.223V1304.06Z" fill="url(#paint25_linear_175_190)" fill-opacity="0.6"/>
<path d="M69.5698 1024.41C71.0651 1024.41 72.1971 1025.05 72.9657 1026.33C73.7483 1027.6 74.1396 1029.45 74.1396 1031.88C74.1396 1034.31 73.7483 1036.16 72.9657 1037.44C72.1971 1038.73 71.0651 1039.37 69.5698 1039.37C68.0885 1039.37 66.9565 1038.73 66.1739 1037.44C65.3913 1036.16 65 1034.31 65 1031.88C65 1029.47 65.3913 1027.62 66.1739 1026.33C66.9565 1025.05 68.0885 1024.41 69.5698 1024.41ZM66.4883 1031.88C66.4883 1033.6 66.6421 1034.95 66.9495 1035.92L71.6032 1026.55C71.114 1025.88 70.4363 1025.55 69.5698 1025.55C68.6055 1025.55 67.8509 1026.07 67.3059 1027.12C66.7608 1028.15 66.4883 1029.73 66.4883 1031.88ZM69.5698 1038.21C70.5481 1038.21 71.3097 1037.69 71.8547 1036.66C72.3997 1035.62 72.6722 1034.02 72.6722 1031.88C72.6722 1030.06 72.4976 1028.65 72.1482 1027.65L67.4945 1037.11C67.9976 1037.84 68.6894 1038.21 69.5698 1038.21Z" fill="url(#paint26_linear_175_190)" fill-opacity="0.6"/>
<path d="M69.5698 1048.59C71.0651 1048.59 72.1971 1049.23 72.9657 1050.52C73.7483 1051.79 74.1396 1053.64 74.1396 1056.06C74.1396 1058.49 73.7483 1060.34 72.9657 1061.63C72.1971 1062.91 71.0651 1063.55 69.5698 1063.55C68.0885 1063.55 66.9565 1062.91 66.1739 1061.63C65.3913 1060.34 65 1058.49 65 1056.06C65 1053.65 65.3913 1051.8 66.1739 1050.52C66.9565 1049.23 68.0885 1048.59 69.5698 1048.59ZM66.4883 1056.06C66.4883 1057.78 66.6421 1059.13 66.9495 1060.1L71.6032 1050.73C71.114 1050.07 70.4363 1049.74 69.5698 1049.74C68.6055 1049.74 67.8509 1050.26 67.3059 1051.3C66.7608 1052.33 66.4883 1053.92 66.4883 1056.06ZM69.5698 1062.39C70.5481 1062.39 71.3097 1061.87 71.8547 1060.84C72.3997 1059.8 72.6722 1058.21 72.6722 1056.06C72.6722 1054.24 72.4976 1052.83 72.1482 1051.83L67.4945 1061.29C67.9976 1062.02 68.6894 1062.39 69.5698 1062.39Z" fill="url(#paint27_linear_175_190)" fill-opacity="0.6"/>
<path d="M70.8276 1086.4H73.909V1087.53H65.9223V1086.4H69.486V1074.51L66.09 1076.56L65.5031 1075.61L69.6956 1072.99H70.8276V1086.4Z" fill="url(#paint28_linear_175_190)" fill-opacity="0.6"/>
<path d="M69.5698 1096.96C71.0651 1096.96 72.1971 1097.6 72.9657 1098.89C73.7483 1100.16 74.1396 1102 74.1396 1104.43C74.1396 1106.86 73.7483 1108.71 72.9657 1110C72.1971 1111.28 71.0651 1111.92 69.5698 1111.92C68.0885 1111.92 66.9565 1111.28 66.1739 1110C65.3913 1108.71 65 1106.86 65 1104.43C65 1102.02 65.3913 1100.17 66.1739 1098.89C66.9565 1097.6 68.0885 1096.96 69.5698 1096.96ZM66.4883 1104.43C66.4883 1106.15 66.6421 1107.5 66.9495 1108.47L71.6032 1099.1C71.114 1098.43 70.4363 1098.1 69.5698 1098.1C68.6055 1098.1 67.8509 1098.63 67.3059 1099.67C66.7608 1100.7 66.4883 1102.29 66.4883 1104.43ZM69.5698 1110.76C70.5481 1110.76 71.3097 1110.24 71.8547 1109.21C72.3997 1108.17 72.6722 1106.57 72.6722 1104.43C72.6722 1102.61 72.4976 1101.2 72.1482 1100.2L67.4945 1109.66C67.9976 1110.39 68.6894 1110.76 69.5698 1110.76Z" fill="url(#paint29_linear_175_190)" fill-opacity="0.6"/>
<path d="M70.8276 1134.77H73.909V1135.89H65.9223V1134.77H69.486V1122.88L66.09 1124.93L65.5031 1123.98L69.6956 1121.36H70.8276V1134.77Z" fill="url(#paint30_linear_175_190)" fill-opacity="0.6"/>
<path d="M70.8276 1158.96H73.909V1160.08H65.9223V1158.96H69.486V1147.06L66.09 1149.12L65.5031 1148.16L69.6956 1145.54H70.8276V1158.96Z" fill="url(#paint31_linear_175_190)" fill-opacity="0.6"/>
<path d="M109.758 989.669H112.839V990.79H104.853V989.669H108.416V977.776L105.02 979.829L104.433 978.877L108.626 976.253H109.758V989.669Z" fill="url(#paint32_linear_175_190)" fill-opacity="0.6"/>
<path d="M108.5 1000.23C109.995 1000.23 111.127 1000.87 111.896 1002.15C112.679 1003.42 113.07 1005.27 113.07 1007.69C113.07 1010.12 112.679 1011.98 111.896 1013.26C111.127 1014.54 109.995 1015.19 108.5 1015.19C107.019 1015.19 105.887 1014.54 105.104 1013.26C104.321 1011.98 103.93 1010.12 103.93 1007.69C103.93 1005.28 104.321 1003.43 105.104 1002.15C105.887 1000.87 107.019 1000.23 108.5 1000.23ZM105.419 1007.69C105.419 1009.42 105.572 1010.76 105.88 1011.74L110.533 1002.36C110.044 1001.7 109.366 1001.37 108.5 1001.37C107.536 1001.37 106.781 1001.89 106.236 1002.93C105.691 1003.96 105.419 1005.55 105.419 1007.69ZM108.5 1014.02C109.478 1014.02 110.24 1013.51 110.785 1012.48C111.33 1011.43 111.602 1009.84 111.602 1007.69C111.602 1005.88 111.428 1004.46 111.078 1003.46L106.425 1012.92C106.928 1013.66 107.62 1014.02 108.5 1014.02Z" fill="url(#paint33_linear_175_190)" fill-opacity="0.6"/>
<path d="M109.758 1038.04H112.839V1039.16H104.853V1038.04H108.416V1026.14L105.02 1028.2L104.433 1027.24L108.626 1024.62H109.758V1038.04Z" fill="url(#paint34_linear_175_190)" fill-opacity="0.6"/>
<path d="M109.758 1062.22H112.839V1063.34H104.853V1062.22H108.416V1050.33L105.02 1052.38L104.433 1051.43L108.626 1048.8H109.758V1062.22Z" fill="url(#paint35_linear_175_190)" fill-opacity="0.6"/>
<path d="M108.5 1072.78C109.995 1072.78 111.127 1073.42 111.896 1074.7C112.679 1075.97 113.07 1077.82 113.07 1080.25C113.07 1082.67 112.679 1084.53 111.896 1085.81C111.127 1087.1 109.995 1087.74 108.5 1087.74C107.019 1087.74 105.887 1087.1 105.104 1085.81C104.321 1084.53 103.93 1082.67 103.93 1080.25C103.93 1077.83 104.321 1075.99 105.104 1074.7C105.887 1073.42 107.019 1072.78 108.5 1072.78ZM105.419 1080.25C105.419 1081.97 105.572 1083.31 105.88 1084.29L110.533 1074.91C110.044 1074.25 109.366 1073.92 108.5 1073.92C107.536 1073.92 106.781 1074.44 106.236 1075.49C105.691 1076.51 105.419 1078.1 105.419 1080.25ZM108.5 1086.57C109.478 1086.57 110.24 1086.06 110.785 1085.03C111.33 1083.98 111.602 1082.39 111.602 1080.25C111.602 1078.43 111.428 1077.02 111.078 1076.01L106.425 1085.47C106.928 1086.21 107.62 1086.57 108.5 1086.57Z" fill="url(#paint36_linear_175_190)" fill-opacity="0.6"/>
<path d="M109.758 1110.59H112.839V1111.71H104.853V1110.59H108.416V1098.7L105.02 1100.75L104.433 1099.8L108.626 1097.17H109.758V1110.59Z" fill="url(#paint37_linear_175_190)" fill-opacity="0.6"/>
<path d="M109.758 1134.77H112.839V1135.89H104.853V1134.77H108.416V1122.88L105.02 1124.93L104.433 1123.98L108.626 1121.36H109.758V1134.77Z" fill="url(#paint38_linear_175_190)" fill-opacity="0.6"/>
<path d="M108.5 1145.33C109.995 1145.33 111.127 1145.97 111.896 1147.25C112.679 1148.52 113.07 1150.37 113.07 1152.8C113.07 1155.22 112.679 1157.08 111.896 1158.36C111.127 1159.65 109.995 1160.29 108.5 1160.29C107.019 1160.29 105.887 1159.65 105.104 1158.36C104.321 1157.08 103.93 1155.22 103.93 1152.8C103.93 1150.39 104.321 1148.54 105.104 1147.25C105.887 1145.97 107.019 1145.33 108.5 1145.33ZM105.419 1152.8C105.419 1154.52 105.572 1155.87 105.88 1156.84L110.533 1147.47C110.044 1146.8 109.366 1146.47 108.5 1146.47C107.536 1146.47 106.781 1146.99 106.236 1148.04C105.691 1149.07 105.419 1150.65 105.419 1152.8ZM108.5 1159.12C109.478 1159.12 110.24 1158.61 110.785 1157.58C111.33 1156.54 111.602 1154.94 111.602 1152.8C111.602 1150.98 111.428 1149.57 111.078 1148.57L106.425 1158.02C106.928 1158.76 107.62 1159.12 108.5 1159.12Z" fill="url(#paint39_linear_175_190)" fill-opacity="0.6"/>
<path d="M109.758 1183.14H112.839V1184.26H104.853V1183.14H108.416V1171.25L105.02 1173.3L104.433 1172.35L108.626 1169.72H109.758V1183.14Z" fill="url(#paint40_linear_175_190)" fill-opacity="0.6"/>
<path d="M108.5 1193.7C109.995 1193.7 111.127 1194.34 111.896 1195.62C112.679 1196.89 113.07 1198.74 113.07 1201.17C113.07 1203.59 112.679 1205.45 111.896 1206.73C111.127 1208.01 109.995 1208.66 108.5 1208.66C107.019 1208.66 105.887 1208.01 105.104 1206.73C104.321 1205.45 103.93 1203.59 103.93 1201.17C103.93 1198.75 104.321 1196.91 105.104 1195.62C105.887 1194.34 107.019 1193.7 108.5 1193.7ZM105.419 1201.17C105.419 1202.89 105.572 1204.23 105.88 1205.21L110.533 1195.83C110.044 1195.17 109.366 1194.84 108.5 1194.84C107.536 1194.84 106.781 1195.36 106.236 1196.4C105.691 1197.43 105.419 1199.02 105.419 1201.17ZM108.5 1207.49C109.478 1207.49 110.24 1206.98 110.785 1205.95C111.33 1204.9 111.602 1203.31 111.602 1201.17C111.602 1199.35 111.428 1197.93 111.078 1196.93L106.425 1206.39C106.928 1207.13 107.62 1207.49 108.5 1207.49Z" fill="url(#paint41_linear_175_190)" fill-opacity="0.6"/>
<path d="M147.43 976.041C148.926 976.041 150.057 976.683 150.826 977.967C151.609 979.237 152 981.085 152 983.511C152 985.937 151.609 987.793 150.826 989.076C150.057 990.36 148.926 991.002 147.43 991.002C145.949 991.002 144.817 990.36 144.034 989.076C143.252 987.793 142.86 985.937 142.86 983.511C142.86 981.099 143.252 979.251 144.034 977.967C144.817 976.683 145.949 976.041 147.43 976.041ZM144.349 983.511C144.349 985.232 144.502 986.579 144.81 987.553L149.464 978.178C148.974 977.515 148.297 977.184 147.43 977.184C146.466 977.184 145.711 977.706 145.166 978.75C144.621 979.78 144.349 981.367 144.349 983.511ZM147.43 989.838C148.408 989.838 149.17 989.323 149.715 988.293C150.26 987.249 150.533 985.655 150.533 983.511C150.533 981.691 150.358 980.28 150.009 979.279L145.355 988.738C145.858 989.471 146.55 989.838 147.43 989.838Z" fill="url(#paint42_linear_175_190)" fill-opacity="0.6"/>
<path d="M148.688 1013.85H151.769V1014.97H143.783V1013.85H147.346V1001.96L143.95 1004.01L143.363 1003.06L147.556 1000.44H148.688V1013.85Z" fill="url(#paint43_linear_175_190)" fill-opacity="0.6"/>
<path d="M148.688 1038.04H151.769V1039.16H143.783V1038.04H147.346V1026.14L143.95 1028.2L143.363 1027.24L147.556 1024.62H148.688V1038.04Z" fill="url(#paint44_linear_175_190)" fill-opacity="0.6"/>
<path d="M147.43 1048.59C148.926 1048.59 150.057 1049.23 150.826 1050.52C151.609 1051.79 152 1053.64 152 1056.06C152 1058.49 151.609 1060.34 150.826 1061.63C150.057 1062.91 148.926 1063.55 147.43 1063.55C145.949 1063.55 144.817 1062.91 144.034 1061.63C143.252 1060.34 142.86 1058.49 142.86 1056.06C142.86 1053.65 143.252 1051.8 144.034 1050.52C144.817 1049.23 145.949 1048.59 147.43 1048.59ZM144.349 1056.06C144.349 1057.78 144.502 1059.13 144.81 1060.1L149.464 1050.73C148.974 1050.07 148.297 1049.74 147.43 1049.74C146.466 1049.74 145.711 1050.26 145.166 1051.3C144.621 1052.33 144.349 1053.92 144.349 1056.06ZM147.43 1062.39C148.408 1062.39 149.17 1061.87 149.715 1060.84C150.26 1059.8 150.533 1058.21 150.533 1056.06C150.533 1054.24 150.358 1052.83 150.009 1051.83L145.355 1061.29C145.858 1062.02 146.55 1062.39 147.43 1062.39Z" fill="url(#paint45_linear_175_190)" fill-opacity="0.6"/>
<path d="M147.43 1072.78C148.926 1072.78 150.057 1073.42 150.826 1074.7C151.609 1075.97 152 1077.82 152 1080.25C152 1082.67 151.609 1084.53 150.826 1085.81C150.057 1087.1 148.926 1087.74 147.43 1087.74C145.949 1087.74 144.817 1087.1 144.034 1085.81C143.252 1084.53 142.86 1082.67 142.86 1080.25C142.86 1077.83 143.252 1075.99 144.034 1074.7C144.817 1073.42 145.949 1072.78 147.43 1072.78ZM144.349 1080.25C144.349 1081.97 144.502 1083.31 144.81 1084.29L149.464 1074.91C148.974 1074.25 148.297 1073.92 147.43 1073.92C146.466 1073.92 145.711 1074.44 145.166 1075.49C144.621 1076.51 144.349 1078.1 144.349 1080.25ZM147.43 1086.57C148.408 1086.57 149.17 1086.06 149.715 1085.03C150.26 1083.98 150.533 1082.39 150.533 1080.25C150.533 1078.43 150.358 1077.02 150.009 1076.01L145.355 1085.47C145.858 1086.21 146.55 1086.57 147.43 1086.57Z" fill="url(#paint46_linear_175_190)" fill-opacity="0.6"/>
<g opacity="0.6">
<path d="M1254.93 506.895C1256.36 506.895 1257.44 507.511 1258.17 508.742C1258.92 509.961 1259.29 511.734 1259.29 514.063C1259.29 516.391 1258.92 518.172 1258.17 519.404C1257.44 520.636 1256.36 521.252 1254.93 521.252C1253.52 521.252 1252.44 520.636 1251.69 519.404C1250.94 518.172 1250.57 516.391 1250.57 514.063C1250.57 511.748 1250.94 509.974 1251.69 508.742C1252.44 507.511 1253.52 506.895 1254.93 506.895ZM1251.99 514.063C1251.99 515.715 1252.14 517.007 1252.43 517.942L1256.87 508.946C1256.4 508.309 1255.76 507.991 1254.93 507.991C1254.01 507.991 1253.29 508.492 1252.77 509.494C1252.25 510.482 1251.99 512.005 1251.99 514.063ZM1254.93 520.135C1255.86 520.135 1256.59 519.641 1257.11 518.652C1257.63 517.651 1257.89 516.121 1257.89 514.063C1257.89 512.317 1257.72 510.963 1257.39 510.002L1252.95 519.079C1253.43 519.783 1254.09 520.135 1254.93 520.135Z" fill="url(#paint47_linear_175_190)"/>
<path d="M1256.13 543.18H1259.07V544.257H1251.45V543.18H1254.85V531.768L1251.61 533.738L1251.05 532.824L1255.05 530.306H1256.13V543.18Z" fill="url(#paint48_linear_175_190)"/>
<path d="M1254.93 553.311C1256.36 553.311 1257.44 553.927 1258.17 555.159C1258.92 556.377 1259.29 558.151 1259.29 560.479C1259.29 562.808 1258.92 564.588 1258.17 565.82C1257.44 567.052 1256.36 567.668 1254.93 567.668C1253.52 567.668 1252.44 567.052 1251.69 565.82C1250.94 564.588 1250.57 562.808 1250.57 560.479C1250.57 558.164 1250.94 556.391 1251.69 555.159C1252.44 553.927 1253.52 553.311 1254.93 553.311ZM1251.99 560.479C1251.99 562.131 1252.14 563.424 1252.43 564.358L1256.87 555.362C1256.4 554.725 1255.76 554.407 1254.93 554.407C1254.01 554.407 1253.29 554.908 1252.77 555.91C1252.25 556.898 1251.99 558.421 1251.99 560.479ZM1254.93 566.551C1255.86 566.551 1256.59 566.057 1257.11 565.069C1257.63 564.067 1257.89 562.537 1257.89 560.479C1257.89 558.733 1257.72 557.379 1257.39 556.418L1252.95 565.495C1253.43 566.199 1254.09 566.551 1254.93 566.551Z" fill="url(#paint49_linear_175_190)"/>
<path d="M1256.13 589.597H1259.07V590.673H1251.45V589.597H1254.85V578.184L1251.61 580.154L1251.05 579.24L1255.05 576.722H1256.13V589.597Z" fill="url(#paint50_linear_175_190)"/>
<path d="M1256.13 612.805H1259.07V613.881H1251.45V612.805H1254.85V601.392L1251.61 603.362L1251.05 602.448L1255.05 599.93H1256.13V612.805Z" fill="url(#paint51_linear_175_190)"/>
<path d="M1254.93 622.935C1256.36 622.935 1257.44 623.551 1258.17 624.783C1258.92 626.001 1259.29 627.775 1259.29 630.103C1259.29 632.432 1258.92 634.212 1258.17 635.444C1257.44 636.676 1256.36 637.292 1254.93 637.292C1253.52 637.292 1252.44 636.676 1251.69 635.444C1250.94 634.212 1250.57 632.432 1250.57 630.103C1250.57 627.788 1250.94 626.015 1251.69 624.783C1252.44 623.551 1253.52 622.935 1254.93 622.935ZM1251.99 630.103C1251.99 631.755 1252.14 633.048 1252.43 633.982L1256.87 624.986C1256.4 624.35 1255.76 624.032 1254.93 624.032C1254.01 624.032 1253.29 624.533 1252.77 625.534C1252.25 626.523 1251.99 628.046 1251.99 630.103ZM1254.93 636.175C1255.86 636.175 1256.59 635.681 1257.11 634.693C1257.63 633.691 1257.89 632.161 1257.89 630.103C1257.89 628.357 1257.72 627.003 1257.39 626.042L1252.95 635.119C1253.43 635.823 1254.09 636.175 1254.93 636.175Z" fill="url(#paint52_linear_175_190)"/>
<path d="M1256.13 659.221H1259.07V660.297H1251.45V659.221H1254.85V647.808L1251.61 649.778L1251.05 648.864L1255.05 646.346H1256.13V659.221Z" fill="url(#paint53_linear_175_190)"/>
<path d="M1254.93 669.351C1256.36 669.351 1257.44 669.967 1258.17 671.199C1258.92 672.418 1259.29 674.191 1259.29 676.52C1259.29 678.848 1258.92 680.628 1258.17 681.86C1257.44 683.092 1256.36 683.708 1254.93 683.708C1253.52 683.708 1252.44 683.092 1251.69 681.86C1250.94 680.628 1250.57 678.848 1250.57 676.52C1250.57 674.205 1250.94 672.431 1251.69 671.199C1252.44 669.967 1253.52 669.351 1254.93 669.351ZM1251.99 676.52C1251.99 678.171 1252.14 679.464 1252.43 680.398L1256.87 671.402C1256.4 670.766 1255.76 670.448 1254.93 670.448C1254.01 670.448 1253.29 670.949 1252.77 671.951C1252.25 672.939 1251.99 674.462 1251.99 676.52ZM1254.93 682.591C1255.86 682.591 1256.59 682.097 1257.11 681.109C1257.63 680.107 1257.89 678.577 1257.89 676.52C1257.89 674.773 1257.72 673.419 1257.39 672.458L1252.95 681.536C1253.43 682.24 1254.09 682.591 1254.93 682.591Z" fill="url(#paint54_linear_175_190)"/>
<path d="M1254.93 692.559C1256.36 692.559 1257.44 693.175 1258.17 694.407C1258.92 695.626 1259.29 697.399 1259.29 699.728C1259.29 702.056 1258.92 703.837 1258.17 705.069C1257.44 706.301 1256.36 706.916 1254.93 706.916C1253.52 706.916 1252.44 706.301 1251.69 705.069C1250.94 703.837 1250.57 702.056 1250.57 699.728C1250.57 697.413 1250.94 695.639 1251.69 694.407C1252.44 693.175 1253.52 692.559 1254.93 692.559ZM1251.99 699.728C1251.99 701.379 1252.14 702.672 1252.43 703.606L1256.87 694.61C1256.4 693.974 1255.76 693.656 1254.93 693.656C1254.01 693.656 1253.29 694.157 1252.77 695.159C1252.25 696.147 1251.99 697.67 1251.99 699.728ZM1254.93 705.8C1255.86 705.8 1256.59 705.305 1257.11 704.317C1257.63 703.315 1257.89 701.786 1257.89 699.728C1257.89 697.981 1257.72 696.628 1257.39 695.666L1252.95 704.744C1253.43 705.448 1254.09 705.8 1254.93 705.8Z" fill="url(#paint55_linear_175_190)"/>
<path d="M1256.13 728.845H1259.07V729.922H1251.45V728.845H1254.85V717.433L1251.61 719.402L1251.05 718.489L1255.05 715.971H1256.13V728.845Z" fill="url(#paint56_linear_175_190)"/>
<path d="M1254.93 738.976C1256.36 738.976 1257.44 739.592 1258.17 740.824C1258.92 742.042 1259.29 743.815 1259.29 746.144C1259.29 748.473 1258.92 750.253 1258.17 751.485C1257.44 752.717 1256.36 753.333 1254.93 753.333C1253.52 753.333 1252.44 752.717 1251.69 751.485C1250.94 750.253 1250.57 748.473 1250.57 746.144C1250.57 743.829 1250.94 742.056 1251.69 740.824C1252.44 739.592 1253.52 738.976 1254.93 738.976ZM1251.99 746.144C1251.99 747.796 1252.14 749.089 1252.43 750.023L1256.87 741.027C1256.4 740.39 1255.76 740.072 1254.93 740.072C1254.01 740.072 1253.29 740.573 1252.77 741.575C1252.25 742.563 1251.99 744.086 1251.99 746.144ZM1254.93 752.216C1255.86 752.216 1256.59 751.722 1257.11 750.733C1257.63 749.732 1257.89 748.202 1257.89 746.144C1257.89 744.398 1257.72 743.044 1257.39 742.083L1252.95 751.16C1253.43 751.864 1254.09 752.216 1254.93 752.216Z" fill="url(#paint57_linear_175_190)"/>
<path d="M1256.13 775.261H1259.07V776.338H1251.45V775.261H1254.85V763.849L1251.61 765.819L1251.05 764.905L1255.05 762.387H1256.13V775.261Z" fill="url(#paint58_linear_175_190)"/>
<path d="M1256.13 798.47H1259.07V799.546H1251.45V798.47H1254.85V787.057L1251.61 789.027L1251.05 788.113L1255.05 785.595H1256.13V798.47Z" fill="url(#paint59_linear_175_190)"/>
<path d="M1292.07 553.311C1293.5 553.311 1294.58 553.927 1295.31 555.159C1296.06 556.377 1296.43 558.151 1296.43 560.479C1296.43 562.808 1296.06 564.588 1295.31 565.82C1294.58 567.052 1293.5 567.668 1292.07 567.668C1290.66 567.668 1289.58 567.052 1288.83 565.82C1288.08 564.588 1287.71 562.808 1287.71 560.479C1287.71 558.164 1288.08 556.391 1288.83 555.159C1289.58 553.927 1290.66 553.311 1292.07 553.311ZM1289.13 560.479C1289.13 562.131 1289.28 563.424 1289.57 564.358L1294.01 555.362C1293.54 554.725 1292.9 554.407 1292.07 554.407C1291.15 554.407 1290.43 554.908 1289.91 555.91C1289.39 556.898 1289.13 558.421 1289.13 560.479ZM1292.07 566.551C1293 566.551 1293.73 566.057 1294.25 565.069C1294.77 564.067 1295.03 562.537 1295.03 560.479C1295.03 558.733 1294.86 557.379 1294.53 556.418L1290.09 565.495C1290.57 566.199 1291.23 566.551 1292.07 566.551Z" fill="url(#paint60_linear_175_190)"/>
<path d="M1293.27 589.597H1296.21V590.673H1288.59V589.597H1291.99V578.184L1288.75 580.154L1288.19 579.24L1292.19 576.722H1293.27V589.597Z" fill="url(#paint61_linear_175_190)"/>
<path d="M1292.07 599.727C1293.5 599.727 1294.58 600.343 1295.31 601.575C1296.06 602.793 1296.43 604.567 1296.43 606.895C1296.43 609.224 1296.06 611.004 1295.31 612.236C1294.58 613.468 1293.5 614.084 1292.07 614.084C1290.66 614.084 1289.58 613.468 1288.83 612.236C1288.08 611.004 1287.71 609.224 1287.71 606.895C1287.71 604.58 1288.08 602.807 1288.83 601.575C1289.58 600.343 1290.66 599.727 1292.07 599.727ZM1289.13 606.895C1289.13 608.547 1289.28 609.84 1289.57 610.774L1294.01 601.778C1293.54 601.142 1292.9 600.824 1292.07 600.824C1291.15 600.824 1290.43 601.324 1289.91 602.326C1289.39 603.315 1289.13 604.838 1289.13 606.895ZM1292.07 612.967C1293 612.967 1293.73 612.473 1294.25 611.485C1294.77 610.483 1295.03 608.953 1295.03 606.895C1295.03 605.149 1294.86 603.795 1294.53 602.834L1290.09 611.911C1290.57 612.615 1291.23 612.967 1292.07 612.967Z" fill="url(#paint62_linear_175_190)"/>
<path d="M1292.07 622.935C1293.5 622.935 1294.58 623.551 1295.31 624.783C1296.06 626.001 1296.43 627.775 1296.43 630.103C1296.43 632.432 1296.06 634.212 1295.31 635.444C1294.58 636.676 1293.5 637.292 1292.07 637.292C1290.66 637.292 1289.58 636.676 1288.83 635.444C1288.08 634.212 1287.71 632.432 1287.71 630.103C1287.71 627.788 1288.08 626.015 1288.83 624.783C1289.58 623.551 1290.66 622.935 1292.07 622.935ZM1289.13 630.103C1289.13 631.755 1289.28 633.048 1289.57 633.982L1294.01 624.986C1293.54 624.35 1292.9 624.032 1292.07 624.032C1291.15 624.032 1290.43 624.533 1289.91 625.534C1289.39 626.523 1289.13 628.046 1289.13 630.103ZM1292.07 636.175C1293 636.175 1293.73 635.681 1294.25 634.693C1294.77 633.691 1295.03 632.161 1295.03 630.103C1295.03 628.357 1294.86 627.003 1294.53 626.042L1290.09 635.119C1290.57 635.823 1291.23 636.175 1292.07 636.175Z" fill="url(#paint63_linear_175_190)"/>
<path d="M1293.27 659.221H1296.21V660.297H1288.59V659.221H1291.99V647.808L1288.75 649.778L1288.19 648.864L1292.19 646.346H1293.27V659.221Z" fill="url(#paint64_linear_175_190)"/>
<path d="M1292.07 669.351C1293.5 669.351 1294.58 669.967 1295.31 671.199C1296.06 672.418 1296.43 674.191 1296.43 676.52C1296.43 678.848 1296.06 680.628 1295.31 681.86C1294.58 683.092 1293.5 683.708 1292.07 683.708C1290.66 683.708 1289.58 683.092 1288.83 681.86C1288.08 680.628 1287.71 678.848 1287.71 676.52C1287.71 674.205 1288.08 672.431 1288.83 671.199C1289.58 669.967 1290.66 669.351 1292.07 669.351ZM1289.13 676.52C1289.13 678.171 1289.28 679.464 1289.57 680.398L1294.01 671.402C1293.54 670.766 1292.9 670.448 1292.07 670.448C1291.15 670.448 1290.43 670.949 1289.91 671.951C1289.39 672.939 1289.13 674.462 1289.13 676.52ZM1292.07 682.591C1293 682.591 1293.73 682.097 1294.25 681.109C1294.77 680.107 1295.03 678.577 1295.03 676.52C1295.03 674.773 1294.86 673.419 1294.53 672.458L1290.09 681.536C1290.57 682.24 1291.23 682.591 1292.07 682.591Z" fill="url(#paint65_linear_175_190)"/>
<path d="M1293.27 705.637H1296.21V706.713H1288.59V705.637H1291.99V694.225L1288.75 696.194L1288.19 695.281L1292.19 692.762H1293.27V705.637Z" fill="url(#paint66_linear_175_190)"/>
<path d="M1292.07 715.767C1293.5 715.767 1294.58 716.383 1295.31 717.615C1296.06 718.834 1296.43 720.607 1296.43 722.936C1296.43 725.264 1296.06 727.045 1295.31 728.277C1294.58 729.509 1293.5 730.125 1292.07 730.125C1290.66 730.125 1289.58 729.509 1288.83 728.277C1288.08 727.045 1287.71 725.264 1287.71 722.936C1287.71 720.621 1288.08 718.847 1288.83 717.615C1289.58 716.383 1290.66 715.767 1292.07 715.767ZM1289.13 722.936C1289.13 724.588 1289.28 725.88 1289.57 726.815L1294.01 717.819C1293.54 717.182 1292.9 716.864 1292.07 716.864C1291.15 716.864 1290.43 717.365 1289.91 718.367C1289.39 719.355 1289.13 720.878 1289.13 722.936ZM1292.07 729.008C1293 729.008 1293.73 728.514 1294.25 727.525C1294.77 726.523 1295.03 724.994 1295.03 722.936C1295.03 721.189 1294.86 719.836 1294.53 718.874L1290.09 727.952C1290.57 728.656 1291.23 729.008 1292.07 729.008Z" fill="url(#paint67_linear_175_190)"/>
<path d="M1292.07 738.976C1293.5 738.976 1294.58 739.592 1295.31 740.824C1296.06 742.042 1296.43 743.815 1296.43 746.144C1296.43 748.473 1296.06 750.253 1295.31 751.485C1294.58 752.717 1293.5 753.333 1292.07 753.333C1290.66 753.333 1289.58 752.717 1288.83 751.485C1288.08 750.253 1287.71 748.473 1287.71 746.144C1287.71 743.829 1288.08 742.056 1288.83 740.824C1289.58 739.592 1290.66 738.976 1292.07 738.976ZM1289.13 746.144C1289.13 747.796 1289.28 749.089 1289.57 750.023L1294.01 741.027C1293.54 740.39 1292.9 740.072 1292.07 740.072C1291.15 740.072 1290.43 740.573 1289.91 741.575C1289.39 742.563 1289.13 744.086 1289.13 746.144ZM1292.07 752.216C1293 752.216 1293.73 751.722 1294.25 750.733C1294.77 749.732 1295.03 748.202 1295.03 746.144C1295.03 744.398 1294.86 743.044 1294.53 742.083L1290.09 751.16C1290.57 751.864 1291.23 752.216 1292.07 752.216Z" fill="url(#paint68_linear_175_190)"/>
<path d="M1293.27 775.261H1296.21V776.338H1288.59V775.261H1291.99V763.849L1288.75 765.819L1288.19 764.905L1292.19 762.387H1293.27V775.261Z" fill="url(#paint69_linear_175_190)"/>
<path d="M1292.07 785.392C1293.5 785.392 1294.58 786.008 1295.31 787.24C1296.06 788.458 1296.43 790.232 1296.43 792.56C1296.43 794.889 1296.06 796.669 1295.31 797.901C1294.58 799.133 1293.5 799.749 1292.07 799.749C1290.66 799.749 1289.58 799.133 1288.83 797.901C1288.08 796.669 1287.71 794.889 1287.71 792.56C1287.71 790.245 1288.08 788.472 1288.83 787.24C1289.58 786.008 1290.66 785.392 1292.07 785.392ZM1289.13 792.56C1289.13 794.212 1289.28 795.505 1289.57 796.439L1294.01 787.443C1293.54 786.807 1292.9 786.488 1292.07 786.488C1291.15 786.488 1290.43 786.989 1289.91 787.991C1289.39 788.979 1289.13 790.502 1289.13 792.56ZM1292.07 798.632C1293 798.632 1293.73 798.138 1294.25 797.15C1294.77 796.148 1295.03 794.618 1295.03 792.56C1295.03 790.814 1294.86 789.46 1294.53 788.499L1290.09 797.576C1290.57 798.28 1291.23 798.632 1292.07 798.632Z" fill="url(#paint70_linear_175_190)"/>
<path d="M1293.27 821.678H1296.21V822.754H1288.59V821.678H1291.99V810.265L1288.75 812.235L1288.19 811.321L1292.19 808.803H1293.27V821.678Z" fill="url(#paint71_linear_175_190)"/>
<path d="M1293.27 844.886H1296.21V845.962H1288.59V844.886H1291.99V833.473L1288.75 835.443L1288.19 834.529L1292.19 832.011H1293.27V844.886Z" fill="url(#paint72_linear_175_190)"/>
<path d="M1236.36 576.519C1237.79 576.519 1238.87 577.135 1239.6 578.367C1240.35 579.585 1240.72 581.359 1240.72 583.687C1240.72 586.016 1240.35 587.796 1239.6 589.028C1238.87 590.26 1237.79 590.876 1236.36 590.876C1234.95 590.876 1233.87 590.26 1233.12 589.028C1232.37 587.796 1232 586.016 1232 583.687C1232 581.372 1232.37 579.599 1233.12 578.367C1233.87 577.135 1234.95 576.519 1236.36 576.519ZM1233.42 583.687C1233.42 585.339 1233.57 586.632 1233.86 587.566L1238.3 578.57C1237.83 577.934 1237.19 577.615 1236.36 577.615C1235.44 577.615 1234.72 578.116 1234.2 579.118C1233.68 580.106 1233.42 581.629 1233.42 583.687ZM1236.36 589.759C1237.29 589.759 1238.02 589.265 1238.54 588.277C1239.06 587.275 1239.32 585.745 1239.32 583.687C1239.32 581.941 1239.15 580.587 1238.82 579.626L1234.38 588.703C1234.86 589.407 1235.52 589.759 1236.36 589.759Z" fill="url(#paint73_linear_175_190)"/>
<path d="M1236.36 599.727C1237.79 599.727 1238.87 600.343 1239.6 601.575C1240.35 602.793 1240.72 604.567 1240.72 606.895C1240.72 609.224 1240.35 611.004 1239.6 612.236C1238.87 613.468 1237.79 614.084 1236.36 614.084C1234.95 614.084 1233.87 613.468 1233.12 612.236C1232.37 611.004 1232 609.224 1232 606.895C1232 604.58 1232.37 602.807 1233.12 601.575C1233.87 600.343 1234.95 599.727 1236.36 599.727ZM1233.42 606.895C1233.42 608.547 1233.57 609.84 1233.86 610.774L1238.3 601.778C1237.83 601.142 1237.19 600.824 1236.36 600.824C1235.44 600.824 1234.72 601.324 1234.2 602.326C1233.68 603.315 1233.42 604.838 1233.42 606.895ZM1236.36 612.967C1237.29 612.967 1238.02 612.473 1238.54 611.485C1239.06 610.483 1239.32 608.953 1239.32 606.895C1239.32 605.149 1239.15 603.795 1238.82 602.834L1234.38 611.911C1234.86 612.615 1235.52 612.967 1236.36 612.967Z" fill="url(#paint74_linear_175_190)"/>
<path d="M1237.56 636.013H1240.5V637.089H1232.88V636.013H1236.28V624.6L1233.04 626.57L1232.48 625.656L1236.48 623.138H1237.56V636.013Z" fill="url(#paint75_linear_175_190)"/>
<path d="M1236.36 646.143C1237.79 646.143 1238.87 646.759 1239.6 647.991C1240.35 649.21 1240.72 650.983 1240.72 653.312C1240.72 655.64 1240.35 657.42 1239.6 658.652C1238.87 659.884 1237.79 660.5 1236.36 660.5C1234.95 660.5 1233.87 659.884 1233.12 658.652C1232.37 657.42 1232 655.64 1232 653.312C1232 650.997 1232.37 649.223 1233.12 647.991C1233.87 646.759 1234.95 646.143 1236.36 646.143ZM1233.42 653.312C1233.42 654.963 1233.57 656.256 1233.86 657.19L1238.3 648.194C1237.83 647.558 1237.19 647.24 1236.36 647.24C1235.44 647.24 1234.72 647.741 1234.2 648.742C1233.68 649.731 1233.42 651.254 1233.42 653.312ZM1236.36 659.383C1237.29 659.383 1238.02 658.889 1238.54 657.901C1239.06 656.899 1239.32 655.369 1239.32 653.312C1239.32 651.565 1239.15 650.211 1238.82 649.25L1234.38 658.327C1234.86 659.031 1235.52 659.383 1236.36 659.383Z" fill="url(#paint76_linear_175_190)"/>
<path d="M1237.56 682.429H1240.5V683.505H1232.88V682.429H1236.28V671.016L1233.04 672.986L1232.48 672.072L1236.48 669.554H1237.56V682.429Z" fill="url(#paint77_linear_175_190)"/>
<path d="M1237.56 705.637H1240.5V706.713H1232.88V705.637H1236.28V694.225L1233.04 696.194L1232.48 695.281L1236.48 692.762H1237.56V705.637Z" fill="url(#paint78_linear_175_190)"/>
<path d="M1274.7 543.18H1277.64V544.257H1270.02V543.18H1273.42V531.768L1270.18 533.738L1269.62 532.824L1273.62 530.306H1274.7V543.18Z" fill="url(#paint79_linear_175_190)"/>
<path d="M1273.5 553.311C1274.93 553.311 1276.01 553.927 1276.74 555.159C1277.49 556.377 1277.86 558.151 1277.86 560.479C1277.86 562.808 1277.49 564.588 1276.74 565.82C1276.01 567.052 1274.93 567.668 1273.5 567.668C1272.09 567.668 1271.01 567.052 1270.26 565.82C1269.51 564.588 1269.14 562.808 1269.14 560.479C1269.14 558.164 1269.51 556.391 1270.26 555.159C1271.01 553.927 1272.09 553.311 1273.5 553.311ZM1270.56 560.479C1270.56 562.131 1270.71 563.424 1271 564.358L1275.44 555.362C1274.97 554.725 1274.33 554.407 1273.5 554.407C1272.58 554.407 1271.86 554.908 1271.34 555.91C1270.82 556.898 1270.56 558.421 1270.56 560.479ZM1273.5 566.551C1274.43 566.551 1275.16 566.057 1275.68 565.069C1276.2 564.067 1276.46 562.537 1276.46 560.479C1276.46 558.733 1276.29 557.379 1275.96 556.418L1271.52 565.495C1272 566.199 1272.66 566.551 1273.5 566.551Z" fill="url(#paint80_linear_175_190)"/>
<path d="M1274.7 589.597H1277.64V590.673H1270.02V589.597H1273.42V578.184L1270.18 580.154L1269.62 579.24L1273.62 576.722H1274.7V589.597Z" fill="url(#paint81_linear_175_190)"/>
<path d="M1274.7 612.805H1277.64V613.881H1270.02V612.805H1273.42V601.392L1270.18 603.362L1269.62 602.448L1273.62 599.93H1274.7V612.805Z" fill="url(#paint82_linear_175_190)"/>
<path d="M1273.5 622.935C1274.93 622.935 1276.01 623.551 1276.74 624.783C1277.49 626.001 1277.86 627.775 1277.86 630.103C1277.86 632.432 1277.49 634.212 1276.74 635.444C1276.01 636.676 1274.93 637.292 1273.5 637.292C1272.09 637.292 1271.01 636.676 1270.26 635.444C1269.51 634.212 1269.14 632.432 1269.14 630.103C1269.14 627.788 1269.51 626.015 1270.26 624.783C1271.01 623.551 1272.09 622.935 1273.5 622.935ZM1270.56 630.103C1270.56 631.755 1270.71 633.048 1271 633.982L1275.44 624.986C1274.97 624.35 1274.33 624.032 1273.5 624.032C1272.58 624.032 1271.86 624.533 1271.34 625.534C1270.82 626.523 1270.56 628.046 1270.56 630.103ZM1273.5 636.175C1274.43 636.175 1275.16 635.681 1275.68 634.693C1276.2 633.691 1276.46 632.161 1276.46 630.103C1276.46 628.357 1276.29 627.003 1275.96 626.042L1271.52 635.119C1272 635.823 1272.66 636.175 1273.5 636.175Z" fill="url(#paint83_linear_175_190)"/>
<path d="M1274.7 659.221H1277.64V660.297H1270.02V659.221H1273.42V647.808L1270.18 649.778L1269.62 648.864L1273.62 646.346H1274.7V659.221Z" fill="url(#paint84_linear_175_190)"/>
<path d="M1274.7 682.429H1277.64V683.505H1270.02V682.429H1273.42V671.016L1270.18 672.986L1269.62 672.072L1273.62 669.554H1274.7V682.429Z" fill="url(#paint85_linear_175_190)"/>
<path d="M1273.5 692.559C1274.93 692.559 1276.01 693.175 1276.74 694.407C1277.49 695.626 1277.86 697.399 1277.86 699.728C1277.86 702.056 1277.49 703.837 1276.74 705.069C1276.01 706.301 1274.93 706.916 1273.5 706.916C1272.09 706.916 1271.01 706.301 1270.26 705.069C1269.51 703.837 1269.14 702.056 1269.14 699.728C1269.14 697.413 1269.51 695.639 1270.26 694.407C1271.01 693.175 1272.09 692.559 1273.5 692.559ZM1270.56 699.728C1270.56 701.379 1270.71 702.672 1271 703.606L1275.44 694.61C1274.97 693.974 1274.33 693.656 1273.5 693.656C1272.58 693.656 1271.86 694.157 1271.34 695.159C1270.82 696.147 1270.56 697.67 1270.56 699.728ZM1273.5 705.8C1274.43 705.8 1275.16 705.305 1275.68 704.317C1276.2 703.315 1276.46 701.786 1276.46 699.728C1276.46 697.981 1276.29 696.628 1275.96 695.666L1271.52 704.744C1272 705.448 1272.66 705.8 1273.5 705.8Z" fill="url(#paint86_linear_175_190)"/>
<path d="M1274.7 728.845H1277.64V729.922H1270.02V728.845H1273.42V717.433L1270.18 719.402L1269.62 718.489L1273.62 715.971H1274.7V728.845Z" fill="url(#paint87_linear_175_190)"/>
<path d="M1273.5 738.976C1274.93 738.976 1276.01 739.592 1276.74 740.824C1277.49 742.042 1277.86 743.815 1277.86 746.144C1277.86 748.473 1277.49 750.253 1276.74 751.485C1276.01 752.717 1274.93 753.333 1273.5 753.333C1272.09 753.333 1271.01 752.717 1270.26 751.485C1269.51 750.253 1269.14 748.473 1269.14 746.144C1269.14 743.829 1269.51 742.056 1270.26 740.824C1271.01 739.592 1272.09 738.976 1273.5 738.976ZM1270.56 746.144C1270.56 747.796 1270.71 749.089 1271 750.023L1275.44 741.027C1274.97 740.39 1274.33 740.072 1273.5 740.072C1272.58 740.072 1271.86 740.573 1271.34 741.575C1270.82 742.563 1270.56 744.086 1270.56 746.144ZM1273.5 752.216C1274.43 752.216 1275.16 751.722 1275.68 750.733C1276.2 749.732 1276.46 748.202 1276.46 746.144C1276.46 744.398 1276.29 743.044 1275.96 742.083L1271.52 751.16C1272 751.864 1272.66 752.216 1273.5 752.216Z" fill="url(#paint88_linear_175_190)"/>
<path d="M1310.64 530.103C1312.07 530.103 1313.15 530.719 1313.88 531.951C1314.63 533.169 1315 534.942 1315 537.271C1315 539.6 1314.63 541.38 1313.88 542.612C1313.15 543.844 1312.07 544.46 1310.64 544.46C1309.23 544.46 1308.15 543.844 1307.4 542.612C1306.65 541.38 1306.28 539.6 1306.28 537.271C1306.28 534.956 1306.65 533.183 1307.4 531.951C1308.15 530.719 1309.23 530.103 1310.64 530.103ZM1307.7 537.271C1307.7 538.923 1307.85 540.216 1308.14 541.15L1312.58 532.154C1312.11 531.517 1311.47 531.199 1310.64 531.199C1309.72 531.199 1309 531.7 1308.48 532.702C1307.96 533.69 1307.7 535.213 1307.7 537.271ZM1310.64 543.343C1311.57 543.343 1312.3 542.849 1312.82 541.86C1313.34 540.859 1313.6 539.329 1313.6 537.271C1313.6 535.525 1313.43 534.171 1313.1 533.21L1308.66 542.287C1309.14 542.991 1309.8 543.343 1310.64 543.343Z" fill="url(#paint89_linear_175_190)"/>
<path d="M1311.84 566.389H1314.78V567.465H1307.16V566.389H1310.56V554.976L1307.32 556.946L1306.76 556.032L1310.76 553.514H1311.84V566.389Z" fill="url(#paint90_linear_175_190)"/>
<path d="M1311.84 589.597H1314.78V590.673H1307.16V589.597H1310.56V578.184L1307.32 580.154L1306.76 579.24L1310.76 576.722H1311.84V589.597Z" fill="url(#paint91_linear_175_190)"/>
<path d="M1310.64 599.727C1312.07 599.727 1313.15 600.343 1313.88 601.575C1314.63 602.793 1315 604.567 1315 606.895C1315 609.224 1314.63 611.004 1313.88 612.236C1313.15 613.468 1312.07 614.084 1310.64 614.084C1309.23 614.084 1308.15 613.468 1307.4 612.236C1306.65 611.004 1306.28 609.224 1306.28 606.895C1306.28 604.58 1306.65 602.807 1307.4 601.575C1308.15 600.343 1309.23 599.727 1310.64 599.727ZM1307.7 606.895C1307.7 608.547 1307.85 609.84 1308.14 610.774L1312.58 601.778C1312.11 601.142 1311.47 600.824 1310.64 600.824C1309.72 600.824 1309 601.324 1308.48 602.326C1307.96 603.315 1307.7 604.838 1307.7 606.895ZM1310.64 612.967C1311.57 612.967 1312.3 612.473 1312.82 611.485C1313.34 610.483 1313.6 608.953 1313.6 606.895C1313.6 605.149 1313.43 603.795 1313.1 602.834L1308.66 611.911C1309.14 612.615 1309.8 612.967 1310.64 612.967Z" fill="url(#paint92_linear_175_190)"/>
<path d="M1310.64 622.935C1312.07 622.935 1313.15 623.551 1313.88 624.783C1314.63 626.001 1315 627.775 1315 630.103C1315 632.432 1314.63 634.212 1313.88 635.444C1313.15 636.676 1312.07 637.292 1310.64 637.292C1309.23 637.292 1308.15 636.676 1307.4 635.444C1306.65 634.212 1306.28 632.432 1306.28 630.103C1306.28 627.788 1306.65 626.015 1307.4 624.783C1308.15 623.551 1309.23 622.935 1310.64 622.935ZM1307.7 630.103C1307.7 631.755 1307.85 633.048 1308.14 633.982L1312.58 624.986C1312.11 624.35 1311.47 624.032 1310.64 624.032C1309.72 624.032 1309 624.533 1308.48 625.534C1307.96 626.523 1307.7 628.046 1307.7 630.103ZM1310.64 636.175C1311.57 636.175 1312.3 635.681 1312.82 634.693C1313.34 633.691 1313.6 632.161 1313.6 630.103C1313.6 628.357 1313.43 627.003 1313.1 626.042L1308.66 635.119C1309.14 635.823 1309.8 636.175 1310.64 636.175Z" fill="url(#paint93_linear_175_190)"/>
</g>
<defs>
<filter id="filter0_f_175_190" x="-380.19" y="0.809998" width="2141.38" height="1513.13" filterUnits="userSpaceOnUse" color-interpolation-filters="sRGB">
<feFlood flood-opacity="0" result="BackgroundImageFix"/>
<feBlend mode="normal" in="SourceGraphic" in2="BackgroundImageFix" result="shape"/>
<feGaussianBlur stdDeviation="200.095" result="effect1_foregroundBlur_175_190"/>
</filter>
<linearGradient id="paint0_linear_175_190" x1="108.5" y1="951.857" x2="108.5" y2="1268.91" gradientUnits="userSpaceOnUse">
<stop stop-color="#F7DD43"/>
<stop offset="1" stop-color="#F7DD43" stop-opacity="0"/>
</linearGradient>
<linearGradient id="paint1_linear_175_190" x1="108.5" y1="951.857" x2="108.5" y2="1268.91" gradientUnits="userSpaceOnUse">
<stop stop-color="#F7DD43"/>
<stop offset="1" stop-color="#F7DD43" stop-opacity="0"/>
</linearGradient>
<linearGradient id="paint2_linear_175_190" x1="108.5" y1="951.857" x2="108.5" y2="1268.91" gradientUnits="userSpaceOnUse">
<stop stop-color="#F7DD43"/>
<stop offset="1" stop-color="#F7DD43" stop-opacity="0"/>
</linearGradient>
<linearGradient id="paint3_linear_175_190" x1="108.5" y1="951.857" x2="108.5" y2="1268.91" gradientUnits="userSpaceOnUse">
<stop stop-color="#F7DD43"/>
<stop offset="1" stop-color="#F7DD43" stop-opacity="0"/>
</linearGradient>
<linearGradient id="paint4_linear_175_190" x1="108.5" y1="951.857" x2="108.5" y2="1268.91" gradientUnits="userSpaceOnUse">
<stop stop-color="#F7DD43"/>
<stop offset="1" stop-color="#F7DD43" stop-opacity="0"/>
</linearGradient>
<linearGradient id="paint5_linear_175_190" x1="108.5" y1="951.857" x2="108.5" y2="1268.91" gradientUnits="userSpaceOnUse">
<stop stop-color="#F7DD43"/>
<stop offset="1" stop-color="#F7DD43" stop-opacity="0"/>
</linearGradient>
<linearGradient id="paint6_linear_175_190" x1="108.5" y1="951.857" x2="108.5" y2="1268.91" gradientUnits="userSpaceOnUse">
<stop stop-color="#F7DD43"/>
<stop offset="1" stop-color="#F7DD43" stop-opacity="0"/>
</linearGradient>
<linearGradient id="paint7_linear_175_190" x1="108.5" y1="951.857" x2="108.5" y2="1268.91" gradientUnits="userSpaceOnUse">
<stop stop-color="#F7DD43"/>
<stop offset="1" stop-color="#F7DD43" stop-opacity="0"/>
</linearGradient>
<linearGradient id="paint8_linear_175_190" x1="108.5" y1="951.857" x2="108.5" y2="1268.91" gradientUnits="userSpaceOnUse">
<stop stop-color="#F7DD43"/>
<stop offset="1" stop-color="#F7DD43" stop-opacity="0"/>
</linearGradient>
<linearGradient id="paint9_linear_175_190" x1="108.5" y1="951.857" x2="108.5" y2="1268.91" gradientUnits="userSpaceOnUse">
<stop stop-color="#F7DD43"/>
<stop offset="1" stop-color="#F7DD43" stop-opacity="0"/>
</linearGradient>
<linearGradient id="paint10_linear_175_190" x1="108.5" y1="951.857" x2="108.5" y2="1268.91" gradientUnits="userSpaceOnUse">
<stop stop-color="#F7DD43"/>
<stop offset="1" stop-color="#F7DD43" stop-opacity="0"/>
</linearGradient>
<linearGradient id="paint11_linear_175_190" x1="108.5" y1="951.857" x2="108.5" y2="1268.91" gradientUnits="userSpaceOnUse">
<stop stop-color="#F7DD43"/>
<stop offset="1" stop-color="#F7DD43" stop-opacity="0"/>
</linearGradient>
<linearGradient id="paint12_linear_175_190" x1="108.5" y1="951.857" x2="108.5" y2="1268.91" gradientUnits="userSpaceOnUse">
<stop stop-color="#F7DD43"/>
<stop offset="1" stop-color="#F7DD43" stop-opacity="0"/>
</linearGradient>
<linearGradient id="paint13_linear_175_190" x1="108.5" y1="951.857" x2="108.5" y2="1268.91" gradientUnits="userSpaceOnUse">
<stop stop-color="#F7DD43"/>
<stop offset="1" stop-color="#F7DD43" stop-opacity="0"/>
</linearGradient>
<linearGradient id="paint14_linear_175_190" x1="108.5" y1="951.857" x2="108.5" y2="1268.91" gradientUnits="userSpaceOnUse">
<stop stop-color="#F7DD43"/>
<stop offset="1" stop-color="#F7DD43" stop-opacity="0"/>
</linearGradient>
<linearGradient id="paint15_linear_175_190" x1="108.5" y1="951.857" x2="108.5" y2="1268.91" gradientUnits="userSpaceOnUse">
<stop stop-color="#F7DD43"/>
<stop offset="1" stop-color="#F7DD43" stop-opacity="0"/>
</linearGradient>
<linearGradient id="paint16_linear_175_190" x1="108.5" y1="951.857" x2="108.5" y2="1268.91" gradientUnits="userSpaceOnUse">
<stop stop-color="#F7DD43"/>
<stop offset="1" stop-color="#F7DD43" stop-opacity="0"/>
</linearGradient>
<linearGradient id="paint17_linear_175_190" x1="108.5" y1="951.857" x2="108.5" y2="1268.91" gradientUnits="userSpaceOnUse">
<stop stop-color="#F7DD43"/>
<stop offset="1" stop-color="#F7DD43" stop-opacity="0"/>
</linearGradient>
<linearGradient id="paint18_linear_175_190" x1="108.5" y1="951.857" x2="108.5" y2="1268.91" gradientUnits="userSpaceOnUse">
<stop stop-color="#F7DD43"/>
<stop offset="1" stop-color="#F7DD43" stop-opacity="0"/>
</linearGradient>
<linearGradient id="paint19_linear_175_190" x1="108.5" y1="951.857" x2="108.5" y2="1268.91" gradientUnits="userSpaceOnUse">
<stop stop-color="#F7DD43"/>
<stop offset="1" stop-color="#F7DD43" stop-opacity="0"/>
</linearGradient>
<linearGradient id="paint20_linear_175_190" x1="108.5" y1="951.857" x2="108.5" y2="1268.91" gradientUnits="userSpaceOnUse">
<stop stop-color="#F7DD43"/>
<stop offset="1" stop-color="#F7DD43" stop-opacity="0"/>
</linearGradient>
<linearGradient id="paint21_linear_175_190" x1="108.5" y1="951.857" x2="108.5" y2="1268.91" gradientUnits="userSpaceOnUse">
<stop stop-color="#F7DD43"/>
<stop offset="1" stop-color="#F7DD43" stop-opacity="0"/>
</linearGradient>
<linearGradient id="paint22_linear_175_190" x1="108.5" y1="951.857" x2="108.5" y2="1268.91" gradientUnits="userSpaceOnUse">
<stop stop-color="#F7DD43"/>
<stop offset="1" stop-color="#F7DD43" stop-opacity="0"/>
</linearGradient>
<linearGradient id="paint23_linear_175_190" x1="108.5" y1="951.857" x2="108.5" y2="1268.91" gradientUnits="userSpaceOnUse">
<stop stop-color="#F7DD43"/>
<stop offset="1" stop-color="#F7DD43" stop-opacity="0"/>
</linearGradient>
<linearGradient id="paint24_linear_175_190" x1="108.5" y1="951.857" x2="108.5" y2="1268.91" gradientUnits="userSpaceOnUse">
<stop stop-color="#F7DD43"/>
<stop offset="1" stop-color="#F7DD43" stop-opacity="0"/>
</linearGradient>
<linearGradient id="paint25_linear_175_190" x1="108.5" y1="951.857" x2="108.5" y2="1268.91" gradientUnits="userSpaceOnUse">
<stop stop-color="#F7DD43"/>
<stop offset="1" stop-color="#F7DD43" stop-opacity="0"/>
</linearGradient>
<linearGradient id="paint26_linear_175_190" x1="108.5" y1="951.857" x2="108.5" y2="1268.91" gradientUnits="userSpaceOnUse">
<stop stop-color="#F7DD43"/>
<stop offset="1" stop-color="#F7DD43" stop-opacity="0"/>
</linearGradient>
<linearGradient id="paint27_linear_175_190" x1="108.5" y1="951.857" x2="108.5" y2="1268.91" gradientUnits="userSpaceOnUse">
<stop stop-color="#F7DD43"/>
<stop offset="1" stop-color="#F7DD43" stop-opacity="0"/>
</linearGradient>
<linearGradient id="paint28_linear_175_190" x1="108.5" y1="951.857" x2="108.5" y2="1268.91" gradientUnits="userSpaceOnUse">
<stop stop-color="#F7DD43"/>
<stop offset="1" stop-color="#F7DD43" stop-opacity="0"/>
</linearGradient>
<linearGradient id="paint29_linear_175_190" x1="108.5" y1="951.857" x2="108.5" y2="1268.91" gradientUnits="userSpaceOnUse">
<stop stop-color="#F7DD43"/>
<stop offset="1" stop-color="#F7DD43" stop-opacity="0"/>
</linearGradient>
<linearGradient id="paint30_linear_175_190" x1="108.5" y1="951.857" x2="108.5" y2="1268.91" gradientUnits="userSpaceOnUse">
<stop stop-color="#F7DD43"/>
<stop offset="1" stop-color="#F7DD43" stop-opacity="0"/>
</linearGradient>
<linearGradient id="paint31_linear_175_190" x1="108.5" y1="951.857" x2="108.5" y2="1268.91" gradientUnits="userSpaceOnUse">
<stop stop-color="#F7DD43"/>
<stop offset="1" stop-color="#F7DD43" stop-opacity="0"/>
</linearGradient>
<linearGradient id="paint32_linear_175_190" x1="108.5" y1="951.857" x2="108.5" y2="1268.91" gradientUnits="userSpaceOnUse">
<stop stop-color="#F7DD43"/>
<stop offset="1" stop-color="#F7DD43" stop-opacity="0"/>
</linearGradient>
<linearGradient id="paint33_linear_175_190" x1="108.5" y1="951.857" x2="108.5" y2="1268.91" gradientUnits="userSpaceOnUse">
<stop stop-color="#F7DD43"/>
<stop offset="1" stop-color="#F7DD43" stop-opacity="0"/>
</linearGradient>
<linearGradient id="paint34_linear_175_190" x1="108.5" y1="951.857" x2="108.5" y2="1268.91" gradientUnits="userSpaceOnUse">
<stop stop-color="#F7DD43"/>
<stop offset="1" stop-color="#F7DD43" stop-opacity="0"/>
</linearGradient>
<linearGradient id="paint35_linear_175_190" x1="108.5" y1="951.857" x2="108.5" y2="1268.91" gradientUnits="userSpaceOnUse">
<stop stop-color="#F7DD43"/>
<stop offset="1" stop-color="#F7DD43" stop-opacity="0"/>
</linearGradient>
<linearGradient id="paint36_linear_175_190" x1="108.5" y1="951.857" x2="108.5" y2="1268.91" gradientUnits="userSpaceOnUse">
<stop stop-color="#F7DD43"/>
<stop offset="1" stop-color="#F7DD43" stop-opacity="0"/>
</linearGradient>
<linearGradient id="paint37_linear_175_190" x1="108.5" y1="951.857" x2="108.5" y2="1268.91" gradientUnits="userSpaceOnUse">
<stop stop-color="#F7DD43"/>
<stop offset="1" stop-color="#F7DD43" stop-opacity="0"/>
</linearGradient>
<linearGradient id="paint38_linear_175_190" x1="108.5" y1="951.857" x2="108.5" y2="1268.91" gradientUnits="userSpaceOnUse">
<stop stop-color="#F7DD43"/>
<stop offset="1" stop-color="#F7DD43" stop-opacity="0"/>
</linearGradient>
<linearGradient id="paint39_linear_175_190" x1="108.5" y1="951.857" x2="108.5" y2="1268.91" gradientUnits="userSpaceOnUse">
<stop stop-color="#F7DD43"/>
<stop offset="1" stop-color="#F7DD43" stop-opacity="0"/>
</linearGradient>
<linearGradient id="paint40_linear_175_190" x1="108.5" y1="951.857" x2="108.5" y2="1268.91" gradientUnits="userSpaceOnUse">
<stop stop-color="#F7DD43"/>
<stop offset="1" stop-color="#F7DD43" stop-opacity="0"/>
</linearGradient>
<linearGradient id="paint41_linear_175_190" x1="108.5" y1="951.857" x2="108.5" y2="1268.91" gradientUnits="userSpaceOnUse">
<stop stop-color="#F7DD43"/>
<stop offset="1" stop-color="#F7DD43" stop-opacity="0"/>
</linearGradient>
<linearGradient id="paint42_linear_175_190" x1="108.5" y1="951.857" x2="108.5" y2="1268.91" gradientUnits="userSpaceOnUse">
<stop stop-color="#F7DD43"/>
<stop offset="1" stop-color="#F7DD43" stop-opacity="0"/>
</linearGradient>
<linearGradient id="paint43_linear_175_190" x1="108.5" y1="951.857" x2="108.5" y2="1268.91" gradientUnits="userSpaceOnUse">
<stop stop-color="#F7DD43"/>
<stop offset="1" stop-color="#F7DD43" stop-opacity="0"/>
</linearGradient>
<linearGradient id="paint44_linear_175_190" x1="108.5" y1="951.857" x2="108.5" y2="1268.91" gradientUnits="userSpaceOnUse">
<stop stop-color="#F7DD43"/>
<stop offset="1" stop-color="#F7DD43" stop-opacity="0"/>
</linearGradient>
<linearGradient id="paint45_linear_175_190" x1="108.5" y1="951.857" x2="108.5" y2="1268.91" gradientUnits="userSpaceOnUse">
<stop stop-color="#F7DD43"/>
<stop offset="1" stop-color="#F7DD43" stop-opacity="0"/>
</linearGradient>
<linearGradient id="paint46_linear_175_190" x1="108.5" y1="951.857" x2="108.5" y2="1268.91" gradientUnits="userSpaceOnUse">
<stop stop-color="#F7DD43"/>
<stop offset="1" stop-color="#F7DD43" stop-opacity="0"/>
</linearGradient>
<linearGradient id="paint47_linear_175_190" x1="1273.5" y1="506.895" x2="1273.5" y2="811.157" gradientUnits="userSpaceOnUse">
<stop stop-color="#F7DD43"/>
<stop offset="1" stop-color="#F7DD43" stop-opacity="0"/>
</linearGradient>
<linearGradient id="paint48_linear_175_190" x1="1273.5" y1="506.895" x2="1273.5" y2="811.157" gradientUnits="userSpaceOnUse">
<stop stop-color="#F7DD43"/>
<stop offset="1" stop-color="#F7DD43" stop-opacity="0"/>
</linearGradient>
<linearGradient id="paint49_linear_175_190" x1="1273.5" y1="506.895" x2="1273.5" y2="811.157" gradientUnits="userSpaceOnUse">
<stop stop-color="#F7DD43"/>
<stop offset="1" stop-color="#F7DD43" stop-opacity="0"/>
</linearGradient>
<linearGradient id="paint50_linear_175_190" x1="1273.5" y1="506.895" x2="1273.5" y2="811.157" gradientUnits="userSpaceOnUse">
<stop stop-color="#F7DD43"/>
<stop offset="1" stop-color="#F7DD43" stop-opacity="0"/>
</linearGradient>
<linearGradient id="paint51_linear_175_190" x1="1273.5" y1="506.895" x2="1273.5" y2="811.157" gradientUnits="userSpaceOnUse">
<stop stop-color="#F7DD43"/>
<stop offset="1" stop-color="#F7DD43" stop-opacity="0"/>
</linearGradient>
<linearGradient id="paint52_linear_175_190" x1="1273.5" y1="506.895" x2="1273.5" y2="811.157" gradientUnits="userSpaceOnUse">
<stop stop-color="#F7DD43"/>
<stop offset="1" stop-color="#F7DD43" stop-opacity="0"/>
</linearGradient>
<linearGradient id="paint53_linear_175_190" x1="1273.5" y1="506.895" x2="1273.5" y2="811.157" gradientUnits="userSpaceOnUse">
<stop stop-color="#F7DD43"/>
<stop offset="1" stop-color="#F7DD43" stop-opacity="0"/>
</linearGradient>
<linearGradient id="paint54_linear_175_190" x1="1273.5" y1="506.895" x2="1273.5" y2="811.157" gradientUnits="userSpaceOnUse">
<stop stop-color="#F7DD43"/>
<stop offset="1" stop-color="#F7DD43" stop-opacity="0"/>
</linearGradient>
<linearGradient id="paint55_linear_175_190" x1="1273.5" y1="506.895" x2="1273.5" y2="811.157" gradientUnits="userSpaceOnUse">
<stop stop-color="#F7DD43"/>
<stop offset="1" stop-color="#F7DD43" stop-opacity="0"/>
</linearGradient>
<linearGradient id="paint56_linear_175_190" x1="1273.5" y1="506.895" x2="1273.5" y2="811.157" gradientUnits="userSpaceOnUse">
<stop stop-color="#F7DD43"/>
<stop offset="1" stop-color="#F7DD43" stop-opacity="0"/>
</linearGradient>
<linearGradient id="paint57_linear_175_190" x1="1273.5" y1="506.895" x2="1273.5" y2="811.157" gradientUnits="userSpaceOnUse">
<stop stop-color="#F7DD43"/>
<stop offset="1" stop-color="#F7DD43" stop-opacity="0"/>
</linearGradient>
<linearGradient id="paint58_linear_175_190" x1="1273.5" y1="506.895" x2="1273.5" y2="811.157" gradientUnits="userSpaceOnUse">
<stop stop-color="#F7DD43"/>
<stop offset="1" stop-color="#F7DD43" stop-opacity="0"/>
</linearGradient>
<linearGradient id="paint59_linear_175_190" x1="1273.5" y1="506.895" x2="1273.5" y2="811.157" gradientUnits="userSpaceOnUse">
<stop stop-color="#F7DD43"/>
<stop offset="1" stop-color="#F7DD43" stop-opacity="0"/>
</linearGradient>
<linearGradient id="paint60_linear_175_190" x1="1273.5" y1="506.895" x2="1273.5" y2="811.157" gradientUnits="userSpaceOnUse">
<stop stop-color="#F7DD43"/>
<stop offset="1" stop-color="#F7DD43" stop-opacity="0"/>
</linearGradient>
<linearGradient id="paint61_linear_175_190" x1="1273.5" y1="506.895" x2="1273.5" y2="811.157" gradientUnits="userSpaceOnUse">
<stop stop-color="#F7DD43"/>
<stop offset="1" stop-color="#F7DD43" stop-opacity="0"/>
</linearGradient>
<linearGradient id="paint62_linear_175_190" x1="1273.5" y1="506.895" x2="1273.5" y2="811.157" gradientUnits="userSpaceOnUse">
<stop stop-color="#F7DD43"/>
<stop offset="1" stop-color="#F7DD43" stop-opacity="0"/>
</linearGradient>
<linearGradient id="paint63_linear_175_190" x1="1273.5" y1="506.895" x2="1273.5" y2="811.157" gradientUnits="userSpaceOnUse">
<stop stop-color="#F7DD43"/>
<stop offset="1" stop-color="#F7DD43" stop-opacity="0"/>
</linearGradient>
<linearGradient id="paint64_linear_175_190" x1="1273.5" y1="506.895" x2="1273.5" y2="811.157" gradientUnits="userSpaceOnUse">
<stop stop-color="#F7DD43"/>
<stop offset="1" stop-color="#F7DD43" stop-opacity="0"/>
</linearGradient>
<linearGradient id="paint65_linear_175_190" x1="1273.5" y1="506.895" x2="1273.5" y2="811.157" gradientUnits="userSpaceOnUse">
<stop stop-color="#F7DD43"/>
<stop offset="1" stop-color="#F7DD43" stop-opacity="0"/>
</linearGradient>
<linearGradient id="paint66_linear_175_190" x1="1273.5" y1="506.895" x2="1273.5" y2="811.157" gradientUnits="userSpaceOnUse">
<stop stop-color="#F7DD43"/>
<stop offset="1" stop-color="#F7DD43" stop-opacity="0"/>
</linearGradient>
<linearGradient id="paint67_linear_175_190" x1="1273.5" y1="506.895" x2="1273.5" y2="811.157" gradientUnits="userSpaceOnUse">
<stop stop-color="#F7DD43"/>
<stop offset="1" stop-color="#F7DD43" stop-opacity="0"/>
</linearGradient>
<linearGradient id="paint68_linear_175_190" x1="1273.5" y1="506.895" x2="1273.5" y2="811.157" gradientUnits="userSpaceOnUse">
<stop stop-color="#F7DD43"/>
<stop offset="1" stop-color="#F7DD43" stop-opacity="0"/>
</linearGradient>
<linearGradient id="paint69_linear_175_190" x1="1273.5" y1="506.895" x2="1273.5" y2="811.157" gradientUnits="userSpaceOnUse">
<stop stop-color="#F7DD43"/>
<stop offset="1" stop-color="#F7DD43" stop-opacity="0"/>
</linearGradient>
<linearGradient id="paint70_linear_175_190" x1="1273.5" y1="506.895" x2="1273.5" y2="811.157" gradientUnits="userSpaceOnUse">
<stop stop-color="#F7DD43"/>
<stop offset="1" stop-color="#F7DD43" stop-opacity="0"/>
</linearGradient>
<linearGradient id="paint71_linear_175_190" x1="1273.5" y1="506.895" x2="1273.5" y2="811.157" gradientUnits="userSpaceOnUse">
<stop stop-color="#F7DD43"/>
<stop offset="1" stop-color="#F7DD43" stop-opacity="0"/>
</linearGradient>
<linearGradient id="paint72_linear_175_190" x1="1273.5" y1="506.895" x2="1273.5" y2="811.157" gradientUnits="userSpaceOnUse">
<stop stop-color="#F7DD43"/>
<stop offset="1" stop-color="#F7DD43" stop-opacity="0"/>
</linearGradient>
<linearGradient id="paint73_linear_175_190" x1="1273.5" y1="506.895" x2="1273.5" y2="811.157" gradientUnits="userSpaceOnUse">
<stop stop-color="#F7DD43"/>
<stop offset="1" stop-color="#F7DD43" stop-opacity="0"/>
</linearGradient>
<linearGradient id="paint74_linear_175_190" x1="1273.5" y1="506.895" x2="1273.5" y2="811.157" gradientUnits="userSpaceOnUse">
<stop stop-color="#F7DD43"/>
<stop offset="1" stop-color="#F7DD43" stop-opacity="0"/>
</linearGradient>
<linearGradient id="paint75_linear_175_190" x1="1273.5" y1="506.895" x2="1273.5" y2="811.157" gradientUnits="userSpaceOnUse">
<stop stop-color="#F7DD43"/>
<stop offset="1" stop-color="#F7DD43" stop-opacity="0"/>
</linearGradient>
<linearGradient id="paint76_linear_175_190" x1="1273.5" y1="506.895" x2="1273.5" y2="811.157" gradientUnits="userSpaceOnUse">
<stop stop-color="#F7DD43"/>
<stop offset="1" stop-color="#F7DD43" stop-opacity="0"/>
</linearGradient>
<linearGradient id="paint77_linear_175_190" x1="1273.5" y1="506.895" x2="1273.5" y2="811.157" gradientUnits="userSpaceOnUse">
<stop stop-color="#F7DD43"/>
<stop offset="1" stop-color="#F7DD43" stop-opacity="0"/>
</linearGradient>
<linearGradient id="paint78_linear_175_190" x1="1273.5" y1="506.895" x2="1273.5" y2="811.157" gradientUnits="userSpaceOnUse">
<stop stop-color="#F7DD43"/>
<stop offset="1" stop-color="#F7DD43" stop-opacity="0"/>
</linearGradient>
<linearGradient id="paint79_linear_175_190" x1="1273.5" y1="506.895" x2="1273.5" y2="811.157" gradientUnits="userSpaceOnUse">
<stop stop-color="#F7DD43"/>
<stop offset="1" stop-color="#F7DD43" stop-opacity="0"/>
</linearGradient>
<linearGradient id="paint80_linear_175_190" x1="1273.5" y1="506.895" x2="1273.5" y2="811.157" gradientUnits="userSpaceOnUse">
<stop stop-color="#F7DD43"/>
<stop offset="1" stop-color="#F7DD43" stop-opacity="0"/>
</linearGradient>
<linearGradient id="paint81_linear_175_190" x1="1273.5" y1="506.895" x2="1273.5" y2="811.157" gradientUnits="userSpaceOnUse">
<stop stop-color="#F7DD43"/>
<stop offset="1" stop-color="#F7DD43" stop-opacity="0"/>
</linearGradient>
<linearGradient id="paint82_linear_175_190" x1="1273.5" y1="506.895" x2="1273.5" y2="811.157" gradientUnits="userSpaceOnUse">
<stop stop-color="#F7DD43"/>
<stop offset="1" stop-color="#F7DD43" stop-opacity="0"/>
</linearGradient>
<linearGradient id="paint83_linear_175_190" x1="1273.5" y1="506.895" x2="1273.5" y2="811.157" gradientUnits="userSpaceOnUse">
<stop stop-color="#F7DD43"/>
<stop offset="1" stop-color="#F7DD43" stop-opacity="0"/>
</linearGradient>
<linearGradient id="paint84_linear_175_190" x1="1273.5" y1="506.895" x2="1273.5" y2="811.157" gradientUnits="userSpaceOnUse">
<stop stop-color="#F7DD43"/>
<stop offset="1" stop-color="#F7DD43" stop-opacity="0"/>
</linearGradient>
<linearGradient id="paint85_linear_175_190" x1="1273.5" y1="506.895" x2="1273.5" y2="811.157" gradientUnits="userSpaceOnUse">
<stop stop-color="#F7DD43"/>
<stop offset="1" stop-color="#F7DD43" stop-opacity="0"/>
</linearGradient>
<linearGradient id="paint86_linear_175_190" x1="1273.5" y1="506.895" x2="1273.5" y2="811.157" gradientUnits="userSpaceOnUse">
<stop stop-color="#F7DD43"/>
<stop offset="1" stop-color="#F7DD43" stop-opacity="0"/>
</linearGradient>
<linearGradient id="paint87_linear_175_190" x1="1273.5" y1="506.895" x2="1273.5" y2="811.157" gradientUnits="userSpaceOnUse">
<stop stop-color="#F7DD43"/>
<stop offset="1" stop-color="#F7DD43" stop-opacity="0"/>
</linearGradient>
<linearGradient id="paint88_linear_175_190" x1="1273.5" y1="506.895" x2="1273.5" y2="811.157" gradientUnits="userSpaceOnUse">
<stop stop-color="#F7DD43"/>
<stop offset="1" stop-color="#F7DD43" stop-opacity="0"/>
</linearGradient>
<linearGradient id="paint89_linear_175_190" x1="1273.5" y1="506.895" x2="1273.5" y2="811.157" gradientUnits="userSpaceOnUse">
<stop stop-color="#F7DD43"/>
<stop offset="1" stop-color="#F7DD43" stop-opacity="0"/>
</linearGradient>
<linearGradient id="paint90_linear_175_190" x1="1273.5" y1="506.895" x2="1273.5" y2="811.157" gradientUnits="userSpaceOnUse">
<stop stop-color="#F7DD43"/>
<stop offset="1" stop-color="#F7DD43" stop-opacity="0"/>
</linearGradient>
<linearGradient id="paint91_linear_175_190" x1="1273.5" y1="506.895" x2="1273.5" y2="811.157" gradientUnits="userSpaceOnUse">
<stop stop-color="#F7DD43"/>
<stop offset="1" stop-color="#F7DD43" stop-opacity="0"/>
</linearGradient>
<linearGradient id="paint92_linear_175_190" x1="1273.5" y1="506.895" x2="1273.5" y2="811.157" gradientUnits="userSpaceOnUse">
<stop stop-color="#F7DD43"/>
<stop offset="1" stop-color="#F7DD43" stop-opacity="0"/>
</linearGradient>
<linearGradient id="paint93_linear_175_190" x1="1273.5" y1="506.895" x2="1273.5" y2="811.157" gradientUnits="userSpaceOnUse">
<stop stop-color="#F7DD43"/>
<stop offset="1" stop-color="#F7DD43" stop-opacity="0"/>
</linearGradient>
</defs>
</svg>
