<svg width="1361" height="1514" viewBox="0 0 1361 1514" fill="none" xmlns="http://www.w3.org/2000/svg">
<g opacity="0.2" filter="url(#filter0_f_175_194)">
<ellipse cx="695" cy="757.377" rx="675" ry="356.377" fill="#B3A659"/>
</g>
<path d="M74.3974 952.876C75.9027 952.876 77.0423 953.518 77.8161 954.802C78.6039 956.071 78.9979 957.919 78.9979 960.346C78.9979 962.772 78.6039 964.627 77.8161 965.911C77.0423 967.195 75.9027 967.837 74.3974 967.837C72.9061 967.837 71.7665 967.195 70.9787 965.911C70.1908 964.627 69.7969 962.772 69.7969 960.346C69.7969 957.933 70.1908 956.085 70.9787 954.802C71.7665 953.518 72.9061 952.876 74.3974 952.876ZM71.2952 960.346C71.2952 962.067 71.45 963.414 71.7595 964.387L76.4444 955.013C75.952 954.35 75.2696 954.019 74.3974 954.019C73.4266 954.019 72.6669 954.541 72.1182 955.585C71.5696 956.614 71.2952 958.201 71.2952 960.346ZM74.3974 966.673C75.3822 966.673 76.1489 966.158 76.6976 965.128C77.2463 964.084 77.5206 962.49 77.5206 960.346C77.5206 958.526 77.3448 957.115 76.9931 956.114L72.3082 965.572C72.8147 966.306 73.5111 966.673 74.3974 966.673Z" fill="url(#paint0_linear_175_194)" fill-opacity="0.6"/>
<path d="M75.6636 990.687H78.7657V991.809H70.7254V990.687H74.313V978.795L70.8943 980.848L70.3034 979.895L74.524 977.271H75.6636V990.687Z" fill="url(#paint1_linear_175_194)" fill-opacity="0.6"/>
<path d="M74.3974 1001.24C75.9027 1001.24 77.0423 1001.89 77.8161 1003.17C78.6039 1004.44 78.9979 1006.29 78.9979 1008.71C78.9979 1011.14 78.6039 1012.99 77.8161 1014.28C77.0423 1015.56 75.9027 1016.2 74.3974 1016.2C72.9061 1016.2 71.7665 1015.56 70.9787 1014.28C70.1908 1012.99 69.7969 1011.14 69.7969 1008.71C69.7969 1006.3 70.1908 1004.45 70.9787 1003.17C71.7665 1001.89 72.9061 1001.24 74.3974 1001.24ZM71.2952 1008.71C71.2952 1010.43 71.45 1011.78 71.7595 1012.76L76.4444 1003.38C75.952 1002.72 75.2696 1002.39 74.3974 1002.39C73.4266 1002.39 72.6669 1002.91 72.1182 1003.95C71.5696 1004.98 71.2952 1006.57 71.2952 1008.71ZM74.3974 1015.04C75.3822 1015.04 76.1489 1014.53 76.6976 1013.5C77.2463 1012.45 77.5206 1010.86 77.5206 1008.71C77.5206 1006.89 77.3448 1005.48 76.9931 1004.48L72.3082 1013.94C72.8147 1014.67 73.5111 1015.04 74.3974 1015.04Z" fill="url(#paint2_linear_175_194)" fill-opacity="0.6"/>
<path d="M75.6636 1039.06H78.7657V1040.18H70.7254V1039.06H74.313V1027.16L70.8943 1029.22L70.3034 1028.26L74.524 1025.64H75.6636V1039.06Z" fill="url(#paint3_linear_175_194)" fill-opacity="0.6"/>
<path d="M75.6636 1063.24H78.7657V1064.36H70.7254V1063.24H74.313V1051.35L70.8943 1053.4L70.3034 1052.45L74.524 1049.82H75.6636V1063.24Z" fill="url(#paint4_linear_175_194)" fill-opacity="0.6"/>
<path d="M74.3974 1073.8C75.9027 1073.8 77.0423 1074.44 77.8161 1075.72C78.6039 1076.99 78.9979 1078.84 78.9979 1081.26C78.9979 1083.69 78.6039 1085.55 77.8161 1086.83C77.0423 1088.11 75.9027 1088.76 74.3974 1088.76C72.9061 1088.76 71.7665 1088.11 70.9787 1086.83C70.1908 1085.55 69.7969 1083.69 69.7969 1081.26C69.7969 1078.85 70.1908 1077 70.9787 1075.72C71.7665 1074.44 72.9061 1073.8 74.3974 1073.8ZM71.2952 1081.26C71.2952 1082.99 71.45 1084.33 71.7595 1085.31L76.4444 1075.93C75.952 1075.27 75.2696 1074.94 74.3974 1074.94C73.4266 1074.94 72.6669 1075.46 72.1182 1076.5C71.5696 1077.53 71.2952 1079.12 71.2952 1081.26ZM74.3974 1087.59C75.3822 1087.59 76.1489 1087.08 76.6976 1086.05C77.2463 1085 77.5206 1083.41 77.5206 1081.26C77.5206 1079.45 77.3448 1078.03 76.9931 1077.03L72.3082 1086.49C72.8147 1087.23 73.5111 1087.59 74.3974 1087.59Z" fill="url(#paint5_linear_175_194)" fill-opacity="0.6"/>
<path d="M75.6636 1111.61H78.7657V1112.73H70.7254V1111.61H74.313V1099.71L70.8943 1101.77L70.3034 1100.81L74.524 1098.19H75.6636V1111.61Z" fill="url(#paint6_linear_175_194)" fill-opacity="0.6"/>
<path d="M74.3974 1122.16C75.9027 1122.16 77.0423 1122.8 77.8161 1124.09C78.6039 1125.36 78.9979 1127.21 78.9979 1129.63C78.9979 1132.06 78.6039 1133.91 77.8161 1135.2C77.0423 1136.48 75.9027 1137.12 74.3974 1137.12C72.9061 1137.12 71.7665 1136.48 70.9787 1135.2C70.1908 1133.91 69.7969 1132.06 69.7969 1129.63C69.7969 1127.22 70.1908 1125.37 70.9787 1124.09C71.7665 1122.8 72.9061 1122.16 74.3974 1122.16ZM71.2952 1129.63C71.2952 1131.35 71.45 1132.7 71.7595 1133.67L76.4444 1124.3C75.952 1123.64 75.2696 1123.31 74.3974 1123.31C73.4266 1123.31 72.6669 1123.83 72.1182 1124.87C71.5696 1125.9 71.2952 1127.49 71.2952 1129.63ZM74.3974 1135.96C75.3822 1135.96 76.1489 1135.44 76.6976 1134.41C77.2463 1133.37 77.5206 1131.78 77.5206 1129.63C77.5206 1127.81 77.3448 1126.4 76.9931 1125.4L72.3082 1134.86C72.8147 1135.59 73.5111 1135.96 74.3974 1135.96Z" fill="url(#paint7_linear_175_194)" fill-opacity="0.6"/>
<path d="M74.3974 1146.35C75.9027 1146.35 77.0423 1146.99 77.8161 1148.27C78.6039 1149.54 78.9979 1151.39 78.9979 1153.82C78.9979 1156.24 78.6039 1158.1 77.8161 1159.38C77.0423 1160.67 75.9027 1161.31 74.3974 1161.31C72.9061 1161.31 71.7665 1160.67 70.9787 1159.38C70.1908 1158.1 69.7969 1156.24 69.7969 1153.82C69.7969 1151.4 70.1908 1149.56 70.9787 1148.27C71.7665 1146.99 72.9061 1146.35 74.3974 1146.35ZM71.2952 1153.82C71.2952 1155.54 71.45 1156.88 71.7595 1157.86L76.4444 1148.48C75.952 1147.82 75.2696 1147.49 74.3974 1147.49C73.4266 1147.49 72.6669 1148.01 72.1182 1149.06C71.5696 1150.08 71.2952 1151.67 71.2952 1153.82ZM74.3974 1160.14C75.3822 1160.14 76.1489 1159.63 76.6976 1158.6C77.2463 1157.55 77.5206 1155.96 77.5206 1153.82C77.5206 1152 77.3448 1150.59 76.9931 1149.58L72.3082 1159.04C72.8147 1159.78 73.5111 1160.14 74.3974 1160.14Z" fill="url(#paint8_linear_175_194)" fill-opacity="0.6"/>
<path d="M75.6636 1184.16H78.7657V1185.28H70.7254V1184.16H74.313V1172.27L70.8943 1174.32L70.3034 1173.37L74.524 1170.74H75.6636V1184.16Z" fill="url(#paint9_linear_175_194)" fill-opacity="0.6"/>
<path d="M74.3974 1194.71C75.9027 1194.71 77.0423 1195.36 77.8161 1196.64C78.6039 1197.91 78.9979 1199.76 78.9979 1202.18C78.9979 1204.61 78.6039 1206.47 77.8161 1207.75C77.0423 1209.03 75.9027 1209.67 74.3974 1209.67C72.9061 1209.67 71.7665 1209.03 70.9787 1207.75C70.1908 1206.47 69.7969 1204.61 69.7969 1202.18C69.7969 1199.77 70.1908 1197.92 70.9787 1196.64C71.7665 1195.36 72.9061 1194.71 74.3974 1194.71ZM71.2952 1202.18C71.2952 1203.91 71.45 1205.25 71.7595 1206.23L76.4444 1196.85C75.952 1196.19 75.2696 1195.86 74.3974 1195.86C73.4266 1195.86 72.6669 1196.38 72.1182 1197.42C71.5696 1198.45 71.2952 1200.04 71.2952 1202.18ZM74.3974 1208.51C75.3822 1208.51 76.1489 1208 76.6976 1206.97C77.2463 1205.92 77.5206 1204.33 77.5206 1202.18C77.5206 1200.36 77.3448 1198.95 76.9931 1197.95L72.3082 1207.41C72.8147 1208.14 73.5111 1208.51 74.3974 1208.51Z" fill="url(#paint10_linear_175_194)" fill-opacity="0.6"/>
<path d="M75.6636 1232.53H78.7657V1233.65H70.7254V1232.53H74.313V1220.63L70.8943 1222.69L70.3034 1221.73L74.524 1219.11H75.6636V1232.53Z" fill="url(#paint11_linear_175_194)" fill-opacity="0.6"/>
<path d="M75.6636 1256.71H78.7657V1257.83H70.7254V1256.71H74.313V1244.82L70.8943 1246.87L70.3034 1245.92L74.524 1243.29H75.6636V1256.71Z" fill="url(#paint12_linear_175_194)" fill-opacity="0.6"/>
<path d="M113.589 1001.24C115.094 1001.24 116.234 1001.89 117.008 1003.17C117.795 1004.44 118.189 1006.29 118.189 1008.71C118.189 1011.14 117.795 1012.99 117.008 1014.28C116.234 1015.56 115.094 1016.2 113.589 1016.2C112.098 1016.2 110.958 1015.56 110.17 1014.28C109.382 1012.99 108.988 1011.14 108.988 1008.71C108.988 1006.3 109.382 1004.45 110.17 1003.17C110.958 1001.89 112.098 1001.24 113.589 1001.24ZM110.487 1008.71C110.487 1010.43 110.641 1011.78 110.951 1012.76L115.636 1003.38C115.143 1002.72 114.461 1002.39 113.589 1002.39C112.618 1002.39 111.858 1002.91 111.31 1003.95C110.761 1004.98 110.487 1006.57 110.487 1008.71ZM113.589 1015.04C114.574 1015.04 115.34 1014.53 115.889 1013.5C116.438 1012.45 116.712 1010.86 116.712 1008.71C116.712 1006.89 116.536 1005.48 116.185 1004.48L111.5 1013.94C112.006 1014.67 112.703 1015.04 113.589 1015.04Z" fill="url(#paint13_linear_175_194)" fill-opacity="0.6"/>
<path d="M114.855 1039.06H117.957V1040.18H109.917V1039.06H113.504V1027.16L110.086 1029.22L109.495 1028.26L113.715 1025.64H114.855V1039.06Z" fill="url(#paint14_linear_175_194)" fill-opacity="0.6"/>
<path d="M113.589 1049.61C115.094 1049.61 116.234 1050.25 117.008 1051.54C117.795 1052.81 118.189 1054.65 118.189 1057.08C118.189 1059.51 117.795 1061.36 117.008 1062.65C116.234 1063.93 115.094 1064.57 113.589 1064.57C112.098 1064.57 110.958 1063.93 110.17 1062.65C109.382 1061.36 108.988 1059.51 108.988 1057.08C108.988 1054.67 109.382 1052.82 110.17 1051.54C110.958 1050.25 112.098 1049.61 113.589 1049.61ZM110.487 1057.08C110.487 1058.8 110.641 1060.15 110.951 1061.12L115.636 1051.75C115.143 1051.09 114.461 1050.75 113.589 1050.75C112.618 1050.75 111.858 1051.28 111.31 1052.32C110.761 1053.35 110.487 1054.94 110.487 1057.08ZM113.589 1063.41C114.574 1063.41 115.34 1062.89 115.889 1061.86C116.438 1060.82 116.712 1059.23 116.712 1057.08C116.712 1055.26 116.536 1053.85 116.185 1052.85L111.5 1062.31C112.006 1063.04 112.703 1063.41 113.589 1063.41Z" fill="url(#paint15_linear_175_194)" fill-opacity="0.6"/>
<path d="M113.589 1073.8C115.094 1073.8 116.234 1074.44 117.008 1075.72C117.795 1076.99 118.189 1078.84 118.189 1081.26C118.189 1083.69 117.795 1085.55 117.008 1086.83C116.234 1088.11 115.094 1088.76 113.589 1088.76C112.098 1088.76 110.958 1088.11 110.17 1086.83C109.382 1085.55 108.988 1083.69 108.988 1081.26C108.988 1078.85 109.382 1077 110.17 1075.72C110.958 1074.44 112.098 1073.8 113.589 1073.8ZM110.487 1081.26C110.487 1082.99 110.641 1084.33 110.951 1085.31L115.636 1075.93C115.143 1075.27 114.461 1074.94 113.589 1074.94C112.618 1074.94 111.858 1075.46 111.31 1076.5C110.761 1077.53 110.487 1079.12 110.487 1081.26ZM113.589 1087.59C114.574 1087.59 115.34 1087.08 115.889 1086.05C116.438 1085 116.712 1083.41 116.712 1081.26C116.712 1079.45 116.536 1078.03 116.185 1077.03L111.5 1086.49C112.006 1087.23 112.703 1087.59 113.589 1087.59Z" fill="url(#paint16_linear_175_194)" fill-opacity="0.6"/>
<path d="M114.855 1111.61H117.957V1112.73H109.917V1111.61H113.504V1099.71L110.086 1101.77L109.495 1100.81L113.715 1098.19H114.855V1111.61Z" fill="url(#paint17_linear_175_194)" fill-opacity="0.6"/>
<path d="M113.589 1122.16C115.094 1122.16 116.234 1122.8 117.008 1124.09C117.795 1125.36 118.189 1127.21 118.189 1129.63C118.189 1132.06 117.795 1133.91 117.008 1135.2C116.234 1136.48 115.094 1137.12 113.589 1137.12C112.098 1137.12 110.958 1136.48 110.17 1135.2C109.382 1133.91 108.988 1132.06 108.988 1129.63C108.988 1127.22 109.382 1125.37 110.17 1124.09C110.958 1122.8 112.098 1122.16 113.589 1122.16ZM110.487 1129.63C110.487 1131.35 110.641 1132.7 110.951 1133.67L115.636 1124.3C115.143 1123.64 114.461 1123.31 113.589 1123.31C112.618 1123.31 111.858 1123.83 111.31 1124.87C110.761 1125.9 110.487 1127.49 110.487 1129.63ZM113.589 1135.96C114.574 1135.96 115.34 1135.44 115.889 1134.41C116.438 1133.37 116.712 1131.78 116.712 1129.63C116.712 1127.81 116.536 1126.4 116.185 1125.4L111.5 1134.86C112.006 1135.59 112.703 1135.96 113.589 1135.96Z" fill="url(#paint18_linear_175_194)" fill-opacity="0.6"/>
<path d="M114.855 1159.97H117.957V1161.1H109.917V1159.97H113.504V1148.08L110.086 1150.13L109.495 1149.18L113.715 1146.56H114.855V1159.97Z" fill="url(#paint19_linear_175_194)" fill-opacity="0.6"/>
<path d="M113.589 1170.53C115.094 1170.53 116.234 1171.17 117.008 1172.46C117.795 1173.73 118.189 1175.57 118.189 1178C118.189 1180.43 117.795 1182.28 117.008 1183.57C116.234 1184.85 115.094 1185.49 113.589 1185.49C112.098 1185.49 110.958 1184.85 110.17 1183.57C109.382 1182.28 108.988 1180.43 108.988 1178C108.988 1175.59 109.382 1173.74 110.17 1172.46C110.958 1171.17 112.098 1170.53 113.589 1170.53ZM110.487 1178C110.487 1179.72 110.641 1181.07 110.951 1182.04L115.636 1172.67C115.143 1172 114.461 1171.67 113.589 1171.67C112.618 1171.67 111.858 1172.2 111.31 1173.24C110.761 1174.27 110.487 1175.86 110.487 1178ZM113.589 1184.33C114.574 1184.33 115.34 1183.81 115.889 1182.78C116.438 1181.74 116.712 1180.14 116.712 1178C116.712 1176.18 116.536 1174.77 116.185 1173.77L111.5 1183.23C112.006 1183.96 112.703 1184.33 113.589 1184.33Z" fill="url(#paint20_linear_175_194)" fill-opacity="0.6"/>
<path d="M113.589 1194.71C115.094 1194.71 116.234 1195.36 117.008 1196.64C117.795 1197.91 118.189 1199.76 118.189 1202.18C118.189 1204.61 117.795 1206.47 117.008 1207.75C116.234 1209.03 115.094 1209.67 113.589 1209.67C112.098 1209.67 110.958 1209.03 110.17 1207.75C109.382 1206.47 108.988 1204.61 108.988 1202.18C108.988 1199.77 109.382 1197.92 110.17 1196.64C110.958 1195.36 112.098 1194.71 113.589 1194.71ZM110.487 1202.18C110.487 1203.91 110.641 1205.25 110.951 1206.23L115.636 1196.85C115.143 1196.19 114.461 1195.86 113.589 1195.86C112.618 1195.86 111.858 1196.38 111.31 1197.42C110.761 1198.45 110.487 1200.04 110.487 1202.18ZM113.589 1208.51C114.574 1208.51 115.34 1208 115.889 1206.97C116.438 1205.92 116.712 1204.33 116.712 1202.18C116.712 1200.36 116.536 1198.95 116.185 1197.95L111.5 1207.41C112.006 1208.14 112.703 1208.51 113.589 1208.51Z" fill="url(#paint21_linear_175_194)" fill-opacity="0.6"/>
<path d="M114.855 1232.53H117.957V1233.65H109.917V1232.53H113.504V1220.63L110.086 1222.69L109.495 1221.73L113.715 1219.11H114.855V1232.53Z" fill="url(#paint22_linear_175_194)" fill-opacity="0.6"/>
<path d="M113.589 1243.08C115.094 1243.08 116.234 1243.72 117.008 1245.01C117.795 1246.28 118.189 1248.13 118.189 1250.55C118.189 1252.98 117.795 1254.83 117.008 1256.12C116.234 1257.4 115.094 1258.04 113.589 1258.04C112.098 1258.04 110.958 1257.4 110.17 1256.12C109.382 1254.83 108.988 1252.98 108.988 1250.55C108.988 1248.14 109.382 1246.29 110.17 1245.01C110.958 1243.72 112.098 1243.08 113.589 1243.08ZM110.487 1250.55C110.487 1252.27 110.641 1253.62 110.951 1254.59L115.636 1245.22C115.143 1244.56 114.461 1244.22 113.589 1244.22C112.618 1244.22 111.858 1244.75 111.31 1245.79C110.761 1246.82 110.487 1248.41 110.487 1250.55ZM113.589 1256.88C114.574 1256.88 115.34 1256.36 115.889 1255.33C116.438 1254.29 116.712 1252.7 116.712 1250.55C116.712 1248.73 116.536 1247.32 116.185 1246.32L111.5 1255.78C112.006 1256.51 112.703 1256.88 113.589 1256.88Z" fill="url(#paint23_linear_175_194)" fill-opacity="0.6"/>
<path d="M114.855 1280.89H117.957V1282.01H109.917V1280.89H113.504V1269L110.086 1271.05L109.495 1270.1L113.715 1267.48H114.855V1280.89Z" fill="url(#paint24_linear_175_194)" fill-opacity="0.6"/>
<path d="M114.855 1305.08H117.957V1306.2H109.917V1305.08H113.504V1293.18L110.086 1295.24L109.495 1294.29L113.715 1291.66H114.855V1305.08Z" fill="url(#paint25_linear_175_194)" fill-opacity="0.6"/>
<path d="M54.8016 1025.43C56.307 1025.43 57.4466 1026.07 58.2204 1027.35C59.0082 1028.62 59.4021 1030.47 59.4021 1032.9C59.4021 1035.32 59.0082 1037.18 58.2204 1038.46C57.4466 1039.75 56.307 1040.39 54.8016 1040.39C53.3104 1040.39 52.1708 1039.75 51.3829 1038.46C50.5951 1037.18 50.2012 1035.32 50.2012 1032.9C50.2012 1030.48 50.5951 1028.64 51.3829 1027.35C52.1708 1026.07 53.3104 1025.43 54.8016 1025.43ZM51.6995 1032.9C51.6995 1034.62 51.8542 1035.97 52.1638 1036.94L56.8486 1027.56C56.3562 1026.9 55.6739 1026.57 54.8016 1026.57C53.8309 1026.57 53.0712 1027.09 52.5225 1028.14C51.9738 1029.17 51.6995 1030.75 51.6995 1032.9ZM54.8016 1039.22C55.7865 1039.22 56.5532 1038.71 57.1019 1037.68C57.6506 1036.64 57.9249 1035.04 57.9249 1032.9C57.9249 1031.08 57.749 1029.67 57.3973 1028.67L52.7124 1038.12C53.2189 1038.86 53.9153 1039.22 54.8016 1039.22Z" fill="url(#paint26_linear_175_194)" fill-opacity="0.6"/>
<path d="M54.8016 1049.61C56.307 1049.61 57.4466 1050.25 58.2204 1051.54C59.0082 1052.81 59.4021 1054.65 59.4021 1057.08C59.4021 1059.51 59.0082 1061.36 58.2204 1062.65C57.4466 1063.93 56.307 1064.57 54.8016 1064.57C53.3104 1064.57 52.1708 1063.93 51.3829 1062.65C50.5951 1061.36 50.2012 1059.51 50.2012 1057.08C50.2012 1054.67 50.5951 1052.82 51.3829 1051.54C52.1708 1050.25 53.3104 1049.61 54.8016 1049.61ZM51.6995 1057.08C51.6995 1058.8 51.8542 1060.15 52.1638 1061.12L56.8486 1051.75C56.3562 1051.09 55.6739 1050.75 54.8016 1050.75C53.8309 1050.75 53.0712 1051.28 52.5225 1052.32C51.9738 1053.35 51.6995 1054.94 51.6995 1057.08ZM54.8016 1063.41C55.7865 1063.41 56.5532 1062.89 57.1019 1061.86C57.6506 1060.82 57.9249 1059.23 57.9249 1057.08C57.9249 1055.26 57.749 1053.85 57.3973 1052.85L52.7124 1062.31C53.2189 1063.04 53.9153 1063.41 54.8016 1063.41Z" fill="url(#paint27_linear_175_194)" fill-opacity="0.6"/>
<path d="M56.0678 1087.42H59.17V1088.54H51.1297V1087.42H54.7172V1075.53L51.2985 1077.58L50.7076 1076.63L54.9283 1074.01H56.0678V1087.42Z" fill="url(#paint28_linear_175_194)" fill-opacity="0.6"/>
<path d="M54.8016 1097.98C56.307 1097.98 57.4466 1098.62 58.2204 1099.9C59.0082 1101.17 59.4021 1103.02 59.4021 1105.45C59.4021 1107.88 59.0082 1109.73 58.2204 1111.01C57.4466 1112.3 56.307 1112.94 54.8016 1112.94C53.3104 1112.94 52.1708 1112.3 51.3829 1111.01C50.5951 1109.73 50.2012 1107.88 50.2012 1105.45C50.2012 1103.04 50.5951 1101.19 51.3829 1099.9C52.1708 1098.62 53.3104 1097.98 54.8016 1097.98ZM51.6995 1105.45C51.6995 1107.17 51.8542 1108.52 52.1638 1109.49L56.8486 1100.12C56.3562 1099.45 55.6739 1099.12 54.8016 1099.12C53.8309 1099.12 53.0712 1099.64 52.5225 1100.69C51.9738 1101.72 51.6995 1103.3 51.6995 1105.45ZM54.8016 1111.78C55.7865 1111.78 56.5532 1111.26 57.1019 1110.23C57.6506 1109.19 57.9249 1107.59 57.9249 1105.45C57.9249 1103.63 57.749 1102.22 57.3973 1101.22L52.7124 1110.68C53.2189 1111.41 53.9153 1111.78 54.8016 1111.78Z" fill="url(#paint29_linear_175_194)" fill-opacity="0.6"/>
<path d="M56.0678 1135.79H59.17V1136.91H51.1297V1135.79H54.7172V1123.9L51.2985 1125.95L50.7076 1125L54.9283 1122.37H56.0678V1135.79Z" fill="url(#paint30_linear_175_194)" fill-opacity="0.6"/>
<path d="M56.0678 1159.97H59.17V1161.1H51.1297V1159.97H54.7172V1148.08L51.2985 1150.13L50.7076 1149.18L54.9283 1146.56H56.0678V1159.97Z" fill="url(#paint31_linear_175_194)" fill-opacity="0.6"/>
<path d="M95.2593 990.687H98.3615V991.809H90.3212V990.687H93.9087V978.795L90.49 980.848L89.8991 979.895L94.1197 977.271H95.2593V990.687Z" fill="url(#paint32_linear_175_194)" fill-opacity="0.6"/>
<path d="M93.9931 1001.24C95.4985 1001.24 96.638 1001.89 97.4118 1003.17C98.1997 1004.44 98.5936 1006.29 98.5936 1008.71C98.5936 1011.14 98.1997 1012.99 97.4118 1014.28C96.638 1015.56 95.4985 1016.2 93.9931 1016.2C92.5018 1016.2 91.3623 1015.56 90.5744 1014.28C89.7866 1012.99 89.3926 1011.14 89.3926 1008.71C89.3926 1006.3 89.7866 1004.45 90.5744 1003.17C91.3623 1001.89 92.5018 1001.24 93.9931 1001.24ZM90.891 1008.71C90.891 1010.43 91.0457 1011.78 91.3552 1012.76L96.0401 1003.38C95.5477 1002.72 94.8654 1002.39 93.9931 1002.39C93.0224 1002.39 92.2627 1002.91 91.714 1003.95C91.1653 1004.98 90.891 1006.57 90.891 1008.71ZM93.9931 1015.04C94.9779 1015.04 95.7447 1014.53 96.2934 1013.5C96.842 1012.45 97.1164 1010.86 97.1164 1008.71C97.1164 1006.89 96.9405 1005.48 96.5888 1004.48L91.9039 1013.94C92.4104 1014.67 93.1068 1015.04 93.9931 1015.04Z" fill="url(#paint33_linear_175_194)" fill-opacity="0.6"/>
<path d="M95.2593 1039.06H98.3615V1040.18H90.3212V1039.06H93.9087V1027.16L90.49 1029.22L89.8991 1028.26L94.1197 1025.64H95.2593V1039.06Z" fill="url(#paint34_linear_175_194)" fill-opacity="0.6"/>
<path d="M95.2593 1063.24H98.3615V1064.36H90.3212V1063.24H93.9087V1051.35L90.49 1053.4L89.8991 1052.45L94.1197 1049.82H95.2593V1063.24Z" fill="url(#paint35_linear_175_194)" fill-opacity="0.6"/>
<path d="M93.9931 1073.8C95.4985 1073.8 96.638 1074.44 97.4118 1075.72C98.1997 1076.99 98.5936 1078.84 98.5936 1081.26C98.5936 1083.69 98.1997 1085.55 97.4118 1086.83C96.638 1088.11 95.4985 1088.76 93.9931 1088.76C92.5018 1088.76 91.3623 1088.11 90.5744 1086.83C89.7866 1085.55 89.3926 1083.69 89.3926 1081.26C89.3926 1078.85 89.7866 1077 90.5744 1075.72C91.3623 1074.44 92.5018 1073.8 93.9931 1073.8ZM90.891 1081.26C90.891 1082.99 91.0457 1084.33 91.3552 1085.31L96.0401 1075.93C95.5477 1075.27 94.8654 1074.94 93.9931 1074.94C93.0224 1074.94 92.2627 1075.46 91.714 1076.5C91.1653 1077.53 90.891 1079.12 90.891 1081.26ZM93.9931 1087.59C94.9779 1087.59 95.7447 1087.08 96.2934 1086.05C96.842 1085 97.1164 1083.41 97.1164 1081.26C97.1164 1079.45 96.9405 1078.03 96.5888 1077.03L91.9039 1086.49C92.4104 1087.23 93.1068 1087.59 93.9931 1087.59Z" fill="url(#paint36_linear_175_194)" fill-opacity="0.6"/>
<path d="M95.2593 1111.61H98.3615V1112.73H90.3212V1111.61H93.9087V1099.71L90.49 1101.77L89.8991 1100.81L94.1197 1098.19H95.2593V1111.61Z" fill="url(#paint37_linear_175_194)" fill-opacity="0.6"/>
<path d="M95.2593 1135.79H98.3615V1136.91H90.3212V1135.79H93.9087V1123.9L90.49 1125.95L89.8991 1125L94.1197 1122.37H95.2593V1135.79Z" fill="url(#paint38_linear_175_194)" fill-opacity="0.6"/>
<path d="M93.9931 1146.35C95.4985 1146.35 96.638 1146.99 97.4118 1148.27C98.1997 1149.54 98.5936 1151.39 98.5936 1153.82C98.5936 1156.24 98.1997 1158.1 97.4118 1159.38C96.638 1160.67 95.4985 1161.31 93.9931 1161.31C92.5018 1161.31 91.3623 1160.67 90.5744 1159.38C89.7866 1158.1 89.3926 1156.24 89.3926 1153.82C89.3926 1151.4 89.7866 1149.56 90.5744 1148.27C91.3623 1146.99 92.5018 1146.35 93.9931 1146.35ZM90.891 1153.82C90.891 1155.54 91.0457 1156.88 91.3552 1157.86L96.0401 1148.48C95.5477 1147.82 94.8654 1147.49 93.9931 1147.49C93.0224 1147.49 92.2627 1148.01 91.714 1149.06C91.1653 1150.08 90.891 1151.67 90.891 1153.82ZM93.9931 1160.14C94.9779 1160.14 95.7447 1159.63 96.2934 1158.6C96.842 1157.55 97.1164 1155.96 97.1164 1153.82C97.1164 1152 96.9405 1150.59 96.5888 1149.58L91.9039 1159.04C92.4104 1159.78 93.1068 1160.14 93.9931 1160.14Z" fill="url(#paint39_linear_175_194)" fill-opacity="0.6"/>
<path d="M95.2593 1184.16H98.3615V1185.28H90.3212V1184.16H93.9087V1172.27L90.49 1174.32L89.8991 1173.37L94.1197 1170.74H95.2593V1184.16Z" fill="url(#paint40_linear_175_194)" fill-opacity="0.6"/>
<path d="M93.9931 1194.71C95.4985 1194.71 96.638 1195.36 97.4118 1196.64C98.1997 1197.91 98.5936 1199.76 98.5936 1202.18C98.5936 1204.61 98.1997 1206.47 97.4118 1207.75C96.638 1209.03 95.4985 1209.67 93.9931 1209.67C92.5018 1209.67 91.3623 1209.03 90.5744 1207.75C89.7866 1206.47 89.3926 1204.61 89.3926 1202.18C89.3926 1199.77 89.7866 1197.92 90.5744 1196.64C91.3623 1195.36 92.5018 1194.71 93.9931 1194.71ZM90.891 1202.18C90.891 1203.91 91.0457 1205.25 91.3552 1206.23L96.0401 1196.85C95.5477 1196.19 94.8654 1195.86 93.9931 1195.86C93.0224 1195.86 92.2627 1196.38 91.714 1197.42C91.1653 1198.45 90.891 1200.04 90.891 1202.18ZM93.9931 1208.51C94.9779 1208.51 95.7447 1208 96.2934 1206.97C96.842 1205.92 97.1164 1204.33 97.1164 1202.18C97.1164 1200.36 96.9405 1198.95 96.5888 1197.95L91.9039 1207.41C92.4104 1208.14 93.1068 1208.51 93.9931 1208.51Z" fill="url(#paint41_linear_175_194)" fill-opacity="0.6"/>
<path d="M133.185 977.06C134.69 977.06 135.83 977.702 136.603 978.985C137.391 980.255 137.785 982.103 137.785 984.53C137.785 986.956 137.391 988.811 136.603 990.095C135.83 991.379 134.69 992.021 133.185 992.021C131.693 992.021 130.554 991.379 129.766 990.095C128.978 988.811 128.584 986.956 128.584 984.53C128.584 982.117 128.978 980.269 129.766 978.985C130.554 977.702 131.693 977.06 133.185 977.06ZM130.082 984.53C130.082 986.251 130.237 987.598 130.547 988.571L135.232 979.197C134.739 978.534 134.057 978.202 133.185 978.202C132.214 978.202 131.454 978.724 130.905 979.768C130.357 980.798 130.082 982.385 130.082 984.53ZM133.185 990.857C134.169 990.857 134.936 990.342 135.485 989.312C136.034 988.268 136.308 986.674 136.308 984.53C136.308 982.71 136.132 981.299 135.78 980.297L131.095 989.756C131.602 990.49 132.298 990.857 133.185 990.857Z" fill="url(#paint42_linear_175_194)" fill-opacity="0.6"/>
<path d="M134.451 1014.87H137.553V1015.99H129.513V1014.87H133.1V1002.98L129.681 1005.03L129.091 1004.08L133.311 1001.46H134.451V1014.87Z" fill="url(#paint43_linear_175_194)" fill-opacity="0.6"/>
<path d="M134.451 1039.06H137.553V1040.18H129.513V1039.06H133.1V1027.16L129.681 1029.22L129.091 1028.26L133.311 1025.64H134.451V1039.06Z" fill="url(#paint44_linear_175_194)" fill-opacity="0.6"/>
<path d="M133.185 1049.61C134.69 1049.61 135.83 1050.25 136.603 1051.54C137.391 1052.81 137.785 1054.65 137.785 1057.08C137.785 1059.51 137.391 1061.36 136.603 1062.65C135.83 1063.93 134.69 1064.57 133.185 1064.57C131.693 1064.57 130.554 1063.93 129.766 1062.65C128.978 1061.36 128.584 1059.51 128.584 1057.08C128.584 1054.67 128.978 1052.82 129.766 1051.54C130.554 1050.25 131.693 1049.61 133.185 1049.61ZM130.082 1057.08C130.082 1058.8 130.237 1060.15 130.547 1061.12L135.232 1051.75C134.739 1051.09 134.057 1050.75 133.185 1050.75C132.214 1050.75 131.454 1051.28 130.905 1052.32C130.357 1053.35 130.082 1054.94 130.082 1057.08ZM133.185 1063.41C134.169 1063.41 134.936 1062.89 135.485 1061.86C136.034 1060.82 136.308 1059.23 136.308 1057.08C136.308 1055.26 136.132 1053.85 135.78 1052.85L131.095 1062.31C131.602 1063.04 132.298 1063.41 133.185 1063.41Z" fill="url(#paint45_linear_175_194)" fill-opacity="0.6"/>
<path d="M133.185 1073.8C134.69 1073.8 135.83 1074.44 136.603 1075.72C137.391 1076.99 137.785 1078.84 137.785 1081.26C137.785 1083.69 137.391 1085.55 136.603 1086.83C135.83 1088.11 134.69 1088.76 133.185 1088.76C131.693 1088.76 130.554 1088.11 129.766 1086.83C128.978 1085.55 128.584 1083.69 128.584 1081.26C128.584 1078.85 128.978 1077 129.766 1075.72C130.554 1074.44 131.693 1073.8 133.185 1073.8ZM130.082 1081.26C130.082 1082.99 130.237 1084.33 130.547 1085.31L135.232 1075.93C134.739 1075.27 134.057 1074.94 133.185 1074.94C132.214 1074.94 131.454 1075.46 130.905 1076.5C130.357 1077.53 130.082 1079.12 130.082 1081.26ZM133.185 1087.59C134.169 1087.59 134.936 1087.08 135.485 1086.05C136.034 1085 136.308 1083.41 136.308 1081.26C136.308 1079.45 136.132 1078.03 135.78 1077.03L131.095 1086.49C131.602 1087.23 132.298 1087.59 133.185 1087.59Z" fill="url(#paint46_linear_175_194)" fill-opacity="0.6"/>
<g opacity="0.6">
<path d="M1248.12 507.913C1249.55 507.913 1250.64 508.529 1251.38 509.761C1252.13 510.979 1252.51 512.753 1252.51 515.081C1252.51 517.41 1252.13 519.19 1251.38 520.422C1250.64 521.654 1249.55 522.27 1248.12 522.27C1246.69 522.27 1245.61 521.654 1244.86 520.422C1244.1 519.19 1243.73 517.41 1243.73 515.081C1243.73 512.766 1244.1 510.993 1244.86 509.761C1245.61 508.529 1246.69 507.913 1248.12 507.913ZM1245.16 515.081C1245.16 516.733 1245.31 518.026 1245.6 518.96L1250.07 509.964C1249.6 509.328 1248.95 509.01 1248.12 509.01C1247.19 509.01 1246.47 509.511 1245.94 510.512C1245.42 511.501 1245.16 513.024 1245.16 515.081ZM1248.12 521.153C1249.06 521.153 1249.79 520.659 1250.31 519.671C1250.84 518.669 1251.1 517.139 1251.1 515.081C1251.1 513.335 1250.93 511.981 1250.59 511.02L1246.12 520.097C1246.61 520.801 1247.27 521.153 1248.12 521.153Z" fill="url(#paint47_linear_175_194)"/>
<path d="M1249.33 544.199H1252.28V545.275H1244.61V544.199H1248.04V532.786L1244.78 534.756L1244.21 533.842L1248.24 531.324H1249.33V544.199Z" fill="url(#paint48_linear_175_194)"/>
<path d="M1248.12 554.329C1249.55 554.329 1250.64 554.945 1251.38 556.177C1252.13 557.396 1252.51 559.169 1252.51 561.498C1252.51 563.826 1252.13 565.607 1251.38 566.838C1250.64 568.07 1249.55 568.686 1248.12 568.686C1246.69 568.686 1245.61 568.07 1244.86 566.838C1244.1 565.607 1243.73 563.826 1243.73 561.498C1243.73 559.183 1244.1 557.409 1244.86 556.177C1245.61 554.945 1246.69 554.329 1248.12 554.329ZM1245.16 561.498C1245.16 563.149 1245.31 564.442 1245.6 565.376L1250.07 556.38C1249.6 555.744 1248.95 555.426 1248.12 555.426C1247.19 555.426 1246.47 555.927 1245.94 556.929C1245.42 557.917 1245.16 559.44 1245.16 561.498ZM1248.12 567.57C1249.06 567.57 1249.79 567.075 1250.31 566.087C1250.84 565.085 1251.1 563.555 1251.1 561.498C1251.1 559.751 1250.93 558.397 1250.59 557.436L1246.12 566.514C1246.61 567.218 1247.27 567.57 1248.12 567.57Z" fill="url(#paint49_linear_175_194)"/>
<path d="M1249.33 590.615H1252.28V591.691H1244.61V590.615H1248.04V579.203L1244.78 581.172L1244.21 580.259L1248.24 577.74H1249.33V590.615Z" fill="url(#paint50_linear_175_194)"/>
<path d="M1249.33 613.823H1252.28V614.9H1244.61V613.823H1248.04V602.411L1244.78 604.38L1244.21 603.467L1248.24 600.949H1249.33V613.823Z" fill="url(#paint51_linear_175_194)"/>
<path d="M1248.12 623.954C1249.55 623.954 1250.64 624.57 1251.38 625.802C1252.13 627.02 1252.51 628.793 1252.51 631.122C1252.51 633.451 1252.13 635.231 1251.38 636.463C1250.64 637.695 1249.55 638.311 1248.12 638.311C1246.69 638.311 1245.61 637.695 1244.86 636.463C1244.1 635.231 1243.73 633.451 1243.73 631.122C1243.73 628.807 1244.1 627.034 1244.86 625.802C1245.61 624.57 1246.69 623.954 1248.12 623.954ZM1245.16 631.122C1245.16 632.774 1245.31 634.067 1245.6 635.001L1250.07 626.005C1249.6 625.368 1248.95 625.05 1248.12 625.05C1247.19 625.05 1246.47 625.551 1245.94 626.553C1245.42 627.541 1245.16 629.064 1245.16 631.122ZM1248.12 637.194C1249.06 637.194 1249.79 636.7 1250.31 635.711C1250.84 634.71 1251.1 633.18 1251.1 631.122C1251.1 629.376 1250.93 628.022 1250.59 627.061L1246.12 636.138C1246.61 636.842 1247.27 637.194 1248.12 637.194Z" fill="url(#paint52_linear_175_194)"/>
<path d="M1249.33 660.239H1252.28V661.316H1244.61V660.239H1248.04V648.827L1244.78 650.797L1244.21 649.883L1248.24 647.365H1249.33V660.239Z" fill="url(#paint53_linear_175_194)"/>
<path d="M1248.12 670.37C1249.55 670.37 1250.64 670.986 1251.38 672.218C1252.13 673.436 1252.51 675.21 1252.51 677.538C1252.51 679.867 1252.13 681.647 1251.38 682.879C1250.64 684.111 1249.55 684.727 1248.12 684.727C1246.69 684.727 1245.61 684.111 1244.86 682.879C1244.1 681.647 1243.73 679.867 1243.73 677.538C1243.73 675.223 1244.1 673.45 1244.86 672.218C1245.61 670.986 1246.69 670.37 1248.12 670.37ZM1245.16 677.538C1245.16 679.19 1245.31 680.483 1245.6 681.417L1250.07 672.421C1249.6 671.785 1248.95 671.466 1248.12 671.466C1247.19 671.466 1246.47 671.967 1245.94 672.969C1245.42 673.957 1245.16 675.48 1245.16 677.538ZM1248.12 683.61C1249.06 683.61 1249.79 683.116 1250.31 682.128C1250.84 681.126 1251.1 679.596 1251.1 677.538C1251.1 675.792 1250.93 674.438 1250.59 673.477L1246.12 682.554C1246.61 683.258 1247.27 683.61 1248.12 683.61Z" fill="url(#paint54_linear_175_194)"/>
<path d="M1248.12 693.578C1249.55 693.578 1250.64 694.194 1251.38 695.426C1252.13 696.644 1252.51 698.418 1252.51 700.746C1252.51 703.075 1252.13 704.855 1251.38 706.087C1250.64 707.319 1249.55 707.935 1248.12 707.935C1246.69 707.935 1245.61 707.319 1244.86 706.087C1244.1 704.855 1243.73 703.075 1243.73 700.746C1243.73 698.431 1244.1 696.658 1244.86 695.426C1245.61 694.194 1246.69 693.578 1248.12 693.578ZM1245.16 700.746C1245.16 702.398 1245.31 703.691 1245.6 704.625L1250.07 695.629C1249.6 694.993 1248.95 694.675 1248.12 694.675C1247.19 694.675 1246.47 695.175 1245.94 696.177C1245.42 697.166 1245.16 698.689 1245.16 700.746ZM1248.12 706.818C1249.06 706.818 1249.79 706.324 1250.31 705.336C1250.84 704.334 1251.1 702.804 1251.1 700.746C1251.1 699 1250.93 697.646 1250.59 696.685L1246.12 705.762C1246.61 706.466 1247.27 706.818 1248.12 706.818Z" fill="url(#paint55_linear_175_194)"/>
<path d="M1249.33 729.864H1252.28V730.94H1244.61V729.864H1248.04V718.451L1244.78 720.421L1244.21 719.507L1248.24 716.989H1249.33V729.864Z" fill="url(#paint56_linear_175_194)"/>
<path d="M1248.12 739.994C1249.55 739.994 1250.64 740.61 1251.38 741.842C1252.13 743.061 1252.51 744.834 1252.51 747.163C1252.51 749.491 1252.13 751.271 1251.38 752.503C1250.64 753.735 1249.55 754.351 1248.12 754.351C1246.69 754.351 1245.61 753.735 1244.86 752.503C1244.1 751.271 1243.73 749.491 1243.73 747.163C1243.73 744.848 1244.1 743.074 1244.86 741.842C1245.61 740.61 1246.69 739.994 1248.12 739.994ZM1245.16 747.163C1245.16 748.814 1245.31 750.107 1245.6 751.041L1250.07 742.045C1249.6 741.409 1248.95 741.091 1248.12 741.091C1247.19 741.091 1246.47 741.592 1245.94 742.593C1245.42 743.582 1245.16 745.105 1245.16 747.163ZM1248.12 753.234C1249.06 753.234 1249.79 752.74 1250.31 751.752C1250.84 750.75 1251.1 749.22 1251.1 747.163C1251.1 745.416 1250.93 744.062 1250.59 743.101L1246.12 752.178C1246.61 752.882 1247.27 753.234 1248.12 753.234Z" fill="url(#paint57_linear_175_194)"/>
<path d="M1249.33 776.28H1252.28V777.356H1244.61V776.28H1248.04V764.867L1244.78 766.837L1244.21 765.923L1248.24 763.405H1249.33V776.28Z" fill="url(#paint58_linear_175_194)"/>
<path d="M1249.33 799.488H1252.28V800.564H1244.61V799.488H1248.04V788.076L1244.78 790.045L1244.21 789.132L1248.24 786.613H1249.33V799.488Z" fill="url(#paint59_linear_175_194)"/>
<path d="M1285.51 554.329C1286.94 554.329 1288.03 554.945 1288.77 556.177C1289.52 557.396 1289.9 559.169 1289.9 561.498C1289.9 563.826 1289.52 565.607 1288.77 566.838C1288.03 568.07 1286.94 568.686 1285.51 568.686C1284.08 568.686 1283 568.07 1282.25 566.838C1281.49 565.607 1281.12 563.826 1281.12 561.498C1281.12 559.183 1281.49 557.409 1282.25 556.177C1283 554.945 1284.08 554.329 1285.51 554.329ZM1282.55 561.498C1282.55 563.149 1282.7 564.442 1282.99 565.376L1287.46 556.38C1286.99 555.744 1286.34 555.426 1285.51 555.426C1284.58 555.426 1283.86 555.927 1283.33 556.929C1282.81 557.917 1282.55 559.44 1282.55 561.498ZM1285.51 567.57C1286.45 567.57 1287.18 567.075 1287.7 566.087C1288.22 565.085 1288.49 563.555 1288.49 561.498C1288.49 559.751 1288.32 558.397 1287.98 557.436L1283.51 566.514C1284 567.218 1284.66 567.57 1285.51 567.57Z" fill="url(#paint60_linear_175_194)"/>
<path d="M1286.71 590.615H1289.67V591.691H1282V590.615H1285.43V579.203L1282.16 581.172L1281.6 580.259L1285.63 577.74H1286.71V590.615Z" fill="url(#paint61_linear_175_194)"/>
<path d="M1285.51 600.746C1286.94 600.746 1288.03 601.361 1288.77 602.593C1289.52 603.812 1289.9 605.585 1289.9 607.914C1289.9 610.242 1289.52 612.023 1288.77 613.255C1288.03 614.487 1286.94 615.103 1285.51 615.103C1284.08 615.103 1283 614.487 1282.25 613.255C1281.49 612.023 1281.12 610.242 1281.12 607.914C1281.12 605.599 1281.49 603.825 1282.25 602.593C1283 601.361 1284.08 600.746 1285.51 600.746ZM1282.55 607.914C1282.55 609.566 1282.7 610.858 1282.99 611.793L1287.46 602.797C1286.99 602.16 1286.34 601.842 1285.51 601.842C1284.58 601.842 1283.86 602.343 1283.33 603.345C1282.81 604.333 1282.55 605.856 1282.55 607.914ZM1285.51 613.986C1286.45 613.986 1287.18 613.492 1287.7 612.503C1288.22 611.502 1288.49 609.972 1288.49 607.914C1288.49 606.168 1288.32 604.814 1287.98 603.852L1283.51 612.93C1284 613.634 1284.66 613.986 1285.51 613.986Z" fill="url(#paint62_linear_175_194)"/>
<path d="M1285.51 623.954C1286.94 623.954 1288.03 624.57 1288.77 625.802C1289.52 627.02 1289.9 628.793 1289.9 631.122C1289.9 633.451 1289.52 635.231 1288.77 636.463C1288.03 637.695 1286.94 638.311 1285.51 638.311C1284.08 638.311 1283 637.695 1282.25 636.463C1281.49 635.231 1281.12 633.451 1281.12 631.122C1281.12 628.807 1281.49 627.034 1282.25 625.802C1283 624.57 1284.08 623.954 1285.51 623.954ZM1282.55 631.122C1282.55 632.774 1282.7 634.067 1282.99 635.001L1287.46 626.005C1286.99 625.368 1286.34 625.05 1285.51 625.05C1284.58 625.05 1283.86 625.551 1283.33 626.553C1282.81 627.541 1282.55 629.064 1282.55 631.122ZM1285.51 637.194C1286.45 637.194 1287.18 636.7 1287.7 635.711C1288.22 634.71 1288.49 633.18 1288.49 631.122C1288.49 629.376 1288.32 628.022 1287.98 627.061L1283.51 636.138C1284 636.842 1284.66 637.194 1285.51 637.194Z" fill="url(#paint63_linear_175_194)"/>
<path d="M1286.71 660.239H1289.67V661.316H1282V660.239H1285.43V648.827L1282.16 650.797L1281.6 649.883L1285.63 647.365H1286.71V660.239Z" fill="url(#paint64_linear_175_194)"/>
<path d="M1285.51 670.37C1286.94 670.37 1288.03 670.986 1288.77 672.218C1289.52 673.436 1289.9 675.21 1289.9 677.538C1289.9 679.867 1289.52 681.647 1288.77 682.879C1288.03 684.111 1286.94 684.727 1285.51 684.727C1284.08 684.727 1283 684.111 1282.25 682.879C1281.49 681.647 1281.12 679.867 1281.12 677.538C1281.12 675.223 1281.49 673.45 1282.25 672.218C1283 670.986 1284.08 670.37 1285.51 670.37ZM1282.55 677.538C1282.55 679.19 1282.7 680.483 1282.99 681.417L1287.46 672.421C1286.99 671.785 1286.34 671.466 1285.51 671.466C1284.58 671.466 1283.86 671.967 1283.33 672.969C1282.81 673.957 1282.55 675.48 1282.55 677.538ZM1285.51 683.61C1286.45 683.61 1287.18 683.116 1287.7 682.128C1288.22 681.126 1288.49 679.596 1288.49 677.538C1288.49 675.792 1288.32 674.438 1287.98 673.477L1283.51 682.554C1284 683.258 1284.66 683.61 1285.51 683.61Z" fill="url(#paint65_linear_175_194)"/>
<path d="M1286.71 706.656H1289.67V707.732H1282V706.656H1285.43V695.243L1282.16 697.213L1281.6 696.299L1285.63 693.781H1286.71V706.656Z" fill="url(#paint66_linear_175_194)"/>
<path d="M1285.51 716.786C1286.94 716.786 1288.03 717.402 1288.77 718.634C1289.52 719.852 1289.9 721.626 1289.9 723.954C1289.9 726.283 1289.52 728.063 1288.77 729.295C1288.03 730.527 1286.94 731.143 1285.51 731.143C1284.08 731.143 1283 730.527 1282.25 729.295C1281.49 728.063 1281.12 726.283 1281.12 723.954C1281.12 721.639 1281.49 719.866 1282.25 718.634C1283 717.402 1284.08 716.786 1285.51 716.786ZM1282.55 723.954C1282.55 725.606 1282.7 726.899 1282.99 727.833L1287.46 718.837C1286.99 718.201 1286.34 717.883 1285.51 717.883C1284.58 717.883 1283.86 718.384 1283.33 719.385C1282.81 720.374 1282.55 721.897 1282.55 723.954ZM1285.51 730.026C1286.45 730.026 1287.18 729.532 1287.7 728.544C1288.22 727.542 1288.49 726.012 1288.49 723.954C1288.49 722.208 1288.32 720.854 1287.98 719.893L1283.51 728.97C1284 729.674 1284.66 730.026 1285.51 730.026Z" fill="url(#paint67_linear_175_194)"/>
<path d="M1285.51 739.994C1286.94 739.994 1288.03 740.61 1288.77 741.842C1289.52 743.061 1289.9 744.834 1289.9 747.163C1289.9 749.491 1289.52 751.271 1288.77 752.503C1288.03 753.735 1286.94 754.351 1285.51 754.351C1284.08 754.351 1283 753.735 1282.25 752.503C1281.49 751.271 1281.12 749.491 1281.12 747.163C1281.12 744.848 1281.49 743.074 1282.25 741.842C1283 740.61 1284.08 739.994 1285.51 739.994ZM1282.55 747.163C1282.55 748.814 1282.7 750.107 1282.99 751.041L1287.46 742.045C1286.99 741.409 1286.34 741.091 1285.51 741.091C1284.58 741.091 1283.86 741.592 1283.33 742.593C1282.81 743.582 1282.55 745.105 1282.55 747.163ZM1285.51 753.234C1286.45 753.234 1287.18 752.74 1287.7 751.752C1288.22 750.75 1288.49 749.22 1288.49 747.163C1288.49 745.416 1288.32 744.062 1287.98 743.101L1283.51 752.178C1284 752.882 1284.66 753.234 1285.51 753.234Z" fill="url(#paint68_linear_175_194)"/>
<path d="M1286.71 776.28H1289.67V777.356H1282V776.28H1285.43V764.867L1282.16 766.837L1281.6 765.923L1285.63 763.405H1286.71V776.28Z" fill="url(#paint69_linear_175_194)"/>
<path d="M1285.51 786.41C1286.94 786.41 1288.03 787.026 1288.77 788.258C1289.52 789.477 1289.9 791.25 1289.9 793.579C1289.9 795.907 1289.52 797.688 1288.77 798.92C1288.03 800.151 1286.94 800.767 1285.51 800.767C1284.08 800.767 1283 800.151 1282.25 798.92C1281.49 797.688 1281.12 795.907 1281.12 793.579C1281.12 791.264 1281.49 789.49 1282.25 788.258C1283 787.026 1284.08 786.41 1285.51 786.41ZM1282.55 793.579C1282.55 795.23 1282.7 796.523 1282.99 797.457L1287.46 788.461C1286.99 787.825 1286.34 787.507 1285.51 787.507C1284.58 787.507 1283.86 788.008 1283.33 789.01C1282.81 789.998 1282.55 791.521 1282.55 793.579ZM1285.51 799.651C1286.45 799.651 1287.18 799.156 1287.7 798.168C1288.22 797.166 1288.49 795.637 1288.49 793.579C1288.49 791.832 1288.32 790.479 1287.98 789.517L1283.51 798.595C1284 799.299 1284.66 799.651 1285.51 799.651Z" fill="url(#paint70_linear_175_194)"/>
<path d="M1286.71 822.696H1289.67V823.773H1282V822.696H1285.43V811.284L1282.16 813.253L1281.6 812.34L1285.63 809.822H1286.71V822.696Z" fill="url(#paint71_linear_175_194)"/>
<path d="M1286.71 845.904H1289.67V846.981H1282V845.904H1285.43V834.492L1282.16 836.462L1281.6 835.548L1285.63 833.03H1286.71V845.904Z" fill="url(#paint72_linear_175_194)"/>
<path d="M1229.42 577.537C1230.86 577.537 1231.95 578.153 1232.68 579.385C1233.44 580.604 1233.81 582.377 1233.81 584.706C1233.81 587.034 1233.44 588.815 1232.68 590.047C1231.95 591.279 1230.86 591.895 1229.42 591.895C1228 591.895 1226.91 591.279 1226.16 590.047C1225.41 588.815 1225.03 587.034 1225.03 584.706C1225.03 582.391 1225.41 580.617 1226.16 579.385C1226.91 578.153 1228 577.537 1229.42 577.537ZM1226.46 584.706C1226.46 586.357 1226.61 587.65 1226.91 588.584L1231.38 579.588C1230.91 578.952 1230.25 578.634 1229.42 578.634C1228.5 578.634 1227.77 579.135 1227.25 580.137C1226.72 581.125 1226.46 582.648 1226.46 584.706ZM1229.42 590.778C1230.36 590.778 1231.09 590.283 1231.62 589.295C1232.14 588.293 1232.4 586.764 1232.4 584.706C1232.4 582.959 1232.23 581.606 1231.9 580.644L1227.43 589.722C1227.91 590.426 1228.58 590.778 1229.42 590.778Z" fill="url(#paint73_linear_175_194)"/>
<path d="M1229.42 600.746C1230.86 600.746 1231.95 601.361 1232.68 602.593C1233.44 603.812 1233.81 605.585 1233.81 607.914C1233.81 610.242 1233.44 612.023 1232.68 613.255C1231.95 614.487 1230.86 615.103 1229.42 615.103C1228 615.103 1226.91 614.487 1226.16 613.255C1225.41 612.023 1225.03 610.242 1225.03 607.914C1225.03 605.599 1225.41 603.825 1226.16 602.593C1226.91 601.361 1228 600.746 1229.42 600.746ZM1226.46 607.914C1226.46 609.566 1226.61 610.858 1226.91 611.793L1231.38 602.797C1230.91 602.16 1230.25 601.842 1229.42 601.842C1228.5 601.842 1227.77 602.343 1227.25 603.345C1226.72 604.333 1226.46 605.856 1226.46 607.914ZM1229.42 613.986C1230.36 613.986 1231.09 613.492 1231.62 612.503C1232.14 611.502 1232.4 609.972 1232.4 607.914C1232.4 606.168 1232.23 604.814 1231.9 603.852L1227.43 612.93C1227.91 613.634 1228.58 613.986 1229.42 613.986Z" fill="url(#paint74_linear_175_194)"/>
<path d="M1230.63 637.031H1233.59V638.108H1225.92V637.031H1229.34V625.619L1226.08 627.589L1225.52 626.675L1229.54 624.157H1230.63V637.031Z" fill="url(#paint75_linear_175_194)"/>
<path d="M1229.42 647.162C1230.86 647.162 1231.95 647.778 1232.68 649.01C1233.44 650.228 1233.81 652.002 1233.81 654.33C1233.81 656.659 1233.44 658.439 1232.68 659.671C1231.95 660.903 1230.86 661.519 1229.42 661.519C1228 661.519 1226.91 660.903 1226.16 659.671C1225.41 658.439 1225.03 656.659 1225.03 654.33C1225.03 652.015 1225.41 650.242 1226.16 649.01C1226.91 647.778 1228 647.162 1229.42 647.162ZM1226.46 654.33C1226.46 655.982 1226.61 657.275 1226.91 658.209L1231.38 649.213C1230.91 648.576 1230.25 648.258 1229.42 648.258C1228.5 648.258 1227.77 648.759 1227.25 649.761C1226.72 650.749 1226.46 652.272 1226.46 654.33ZM1229.42 660.402C1230.36 660.402 1231.09 659.908 1231.62 658.92C1232.14 657.918 1232.4 656.388 1232.4 654.33C1232.4 652.584 1232.23 651.23 1231.9 650.269L1227.43 659.346C1227.91 660.05 1228.58 660.402 1229.42 660.402Z" fill="url(#paint76_linear_175_194)"/>
<path d="M1230.63 683.448H1233.59V684.524H1225.92V683.448H1229.34V672.035L1226.08 674.005L1225.52 673.091L1229.54 670.573H1230.63V683.448Z" fill="url(#paint77_linear_175_194)"/>
<path d="M1230.63 706.656H1233.59V707.732H1225.92V706.656H1229.34V695.243L1226.08 697.213L1225.52 696.299L1229.54 693.781H1230.63V706.656Z" fill="url(#paint78_linear_175_194)"/>
<path d="M1268.02 544.199H1270.98V545.275H1263.31V544.199H1266.73V532.786L1263.47 534.756L1262.91 533.842L1266.93 531.324H1268.02V544.199Z" fill="url(#paint79_linear_175_194)"/>
<path d="M1266.81 554.329C1268.25 554.329 1269.34 554.945 1270.07 556.177C1270.83 557.396 1271.2 559.169 1271.2 561.498C1271.2 563.826 1270.83 565.607 1270.07 566.838C1269.34 568.07 1268.25 568.686 1266.81 568.686C1265.39 568.686 1264.3 568.07 1263.55 566.838C1262.8 565.607 1262.42 563.826 1262.42 561.498C1262.42 559.183 1262.8 557.409 1263.55 556.177C1264.3 554.945 1265.39 554.329 1266.81 554.329ZM1263.85 561.498C1263.85 563.149 1264 564.442 1264.3 565.376L1268.77 556.38C1268.3 555.744 1267.64 555.426 1266.81 555.426C1265.89 555.426 1265.16 555.927 1264.64 556.929C1264.11 557.917 1263.85 559.44 1263.85 561.498ZM1266.81 567.57C1267.75 567.57 1268.48 567.075 1269.01 566.087C1269.53 565.085 1269.79 563.555 1269.79 561.498C1269.79 559.751 1269.62 558.397 1269.29 557.436L1264.82 566.514C1265.3 567.218 1265.97 567.57 1266.81 567.57Z" fill="url(#paint80_linear_175_194)"/>
<path d="M1268.02 590.615H1270.98V591.691H1263.31V590.615H1266.73V579.203L1263.47 581.172L1262.91 580.259L1266.93 577.74H1268.02V590.615Z" fill="url(#paint81_linear_175_194)"/>
<path d="M1268.02 613.823H1270.98V614.9H1263.31V613.823H1266.73V602.411L1263.47 604.38L1262.91 603.467L1266.93 600.949H1268.02V613.823Z" fill="url(#paint82_linear_175_194)"/>
<path d="M1266.81 623.954C1268.25 623.954 1269.34 624.57 1270.07 625.802C1270.83 627.02 1271.2 628.793 1271.2 631.122C1271.2 633.451 1270.83 635.231 1270.07 636.463C1269.34 637.695 1268.25 638.311 1266.81 638.311C1265.39 638.311 1264.3 637.695 1263.55 636.463C1262.8 635.231 1262.42 633.451 1262.42 631.122C1262.42 628.807 1262.8 627.034 1263.55 625.802C1264.3 624.57 1265.39 623.954 1266.81 623.954ZM1263.85 631.122C1263.85 632.774 1264 634.067 1264.3 635.001L1268.77 626.005C1268.3 625.368 1267.64 625.05 1266.81 625.05C1265.89 625.05 1265.16 625.551 1264.64 626.553C1264.11 627.541 1263.85 629.064 1263.85 631.122ZM1266.81 637.194C1267.75 637.194 1268.48 636.7 1269.01 635.711C1269.53 634.71 1269.79 633.18 1269.79 631.122C1269.79 629.376 1269.62 628.022 1269.29 627.061L1264.82 636.138C1265.3 636.842 1265.97 637.194 1266.81 637.194Z" fill="url(#paint83_linear_175_194)"/>
<path d="M1268.02 660.239H1270.98V661.316H1263.31V660.239H1266.73V648.827L1263.47 650.797L1262.91 649.883L1266.93 647.365H1268.02V660.239Z" fill="url(#paint84_linear_175_194)"/>
<path d="M1268.02 683.448H1270.98V684.524H1263.31V683.448H1266.73V672.035L1263.47 674.005L1262.91 673.091L1266.93 670.573H1268.02V683.448Z" fill="url(#paint85_linear_175_194)"/>
<path d="M1266.81 693.578C1268.25 693.578 1269.34 694.194 1270.07 695.426C1270.83 696.644 1271.2 698.418 1271.2 700.746C1271.2 703.075 1270.83 704.855 1270.07 706.087C1269.34 707.319 1268.25 707.935 1266.81 707.935C1265.39 707.935 1264.3 707.319 1263.55 706.087C1262.8 704.855 1262.42 703.075 1262.42 700.746C1262.42 698.431 1262.8 696.658 1263.55 695.426C1264.3 694.194 1265.39 693.578 1266.81 693.578ZM1263.85 700.746C1263.85 702.398 1264 703.691 1264.3 704.625L1268.77 695.629C1268.3 694.993 1267.64 694.675 1266.81 694.675C1265.89 694.675 1265.16 695.175 1264.64 696.177C1264.11 697.166 1263.85 698.689 1263.85 700.746ZM1266.81 706.818C1267.75 706.818 1268.48 706.324 1269.01 705.336C1269.53 704.334 1269.79 702.804 1269.79 700.746C1269.79 699 1269.62 697.646 1269.29 696.685L1264.82 705.762C1265.3 706.466 1265.97 706.818 1266.81 706.818Z" fill="url(#paint86_linear_175_194)"/>
<path d="M1268.02 729.864H1270.98V730.94H1263.31V729.864H1266.73V718.451L1263.47 720.421L1262.91 719.507L1266.93 716.989H1268.02V729.864Z" fill="url(#paint87_linear_175_194)"/>
<path d="M1266.81 739.994C1268.25 739.994 1269.34 740.61 1270.07 741.842C1270.83 743.061 1271.2 744.834 1271.2 747.163C1271.2 749.491 1270.83 751.271 1270.07 752.503C1269.34 753.735 1268.25 754.351 1266.81 754.351C1265.39 754.351 1264.3 753.735 1263.55 752.503C1262.8 751.271 1262.42 749.491 1262.42 747.163C1262.42 744.848 1262.8 743.074 1263.55 741.842C1264.3 740.61 1265.39 739.994 1266.81 739.994ZM1263.85 747.163C1263.85 748.814 1264 750.107 1264.3 751.041L1268.77 742.045C1268.3 741.409 1267.64 741.091 1266.81 741.091C1265.89 741.091 1265.16 741.592 1264.64 742.593C1264.11 743.582 1263.85 745.105 1263.85 747.163ZM1266.81 753.234C1267.75 753.234 1268.48 752.74 1269.01 751.752C1269.53 750.75 1269.79 749.22 1269.79 747.163C1269.79 745.416 1269.62 744.062 1269.29 743.101L1264.82 752.178C1265.3 752.882 1265.97 753.234 1266.81 753.234Z" fill="url(#paint88_linear_175_194)"/>
<path d="M1304.2 531.121C1305.64 531.121 1306.73 531.737 1307.46 532.969C1308.21 534.188 1308.59 535.961 1308.59 538.29C1308.59 540.618 1308.21 542.398 1307.46 543.63C1306.73 544.862 1305.64 545.478 1304.2 545.478C1302.78 545.478 1301.69 544.862 1300.94 543.63C1300.19 542.398 1299.81 540.618 1299.81 538.29C1299.81 535.975 1300.19 534.201 1300.94 532.969C1301.69 531.737 1302.78 531.121 1304.2 531.121ZM1301.24 538.29C1301.24 539.941 1301.39 541.234 1301.69 542.168L1306.15 533.172C1305.68 532.536 1305.03 532.218 1304.2 532.218C1303.28 532.218 1302.55 532.719 1302.03 533.72C1301.5 534.709 1301.24 536.232 1301.24 538.29ZM1304.2 544.361C1305.14 544.361 1305.87 543.867 1306.4 542.879C1306.92 541.877 1307.18 540.347 1307.18 538.29C1307.18 536.543 1307.01 535.189 1306.68 534.228L1302.21 543.305C1302.69 544.009 1303.36 544.361 1304.2 544.361Z" fill="url(#paint89_linear_175_194)"/>
<path d="M1305.41 567.407H1308.37V568.483H1300.7V567.407H1304.12V555.994L1300.86 557.964L1300.3 557.05L1304.32 554.532H1305.41V567.407Z" fill="url(#paint90_linear_175_194)"/>
<path d="M1305.41 590.615H1308.37V591.691H1300.7V590.615H1304.12V579.203L1300.86 581.172L1300.3 580.259L1304.32 577.74H1305.41V590.615Z" fill="url(#paint91_linear_175_194)"/>
<path d="M1304.2 600.746C1305.64 600.746 1306.73 601.361 1307.46 602.593C1308.21 603.812 1308.59 605.585 1308.59 607.914C1308.59 610.242 1308.21 612.023 1307.46 613.255C1306.73 614.487 1305.64 615.103 1304.2 615.103C1302.78 615.103 1301.69 614.487 1300.94 613.255C1300.19 612.023 1299.81 610.242 1299.81 607.914C1299.81 605.599 1300.19 603.825 1300.94 602.593C1301.69 601.361 1302.78 600.746 1304.2 600.746ZM1301.24 607.914C1301.24 609.566 1301.39 610.858 1301.69 611.793L1306.15 602.797C1305.68 602.16 1305.03 601.842 1304.2 601.842C1303.28 601.842 1302.55 602.343 1302.03 603.345C1301.5 604.333 1301.24 605.856 1301.24 607.914ZM1304.2 613.986C1305.14 613.986 1305.87 613.492 1306.4 612.503C1306.92 611.502 1307.18 609.972 1307.18 607.914C1307.18 606.168 1307.01 604.814 1306.68 603.852L1302.21 612.93C1302.69 613.634 1303.36 613.986 1304.2 613.986Z" fill="url(#paint92_linear_175_194)"/>
<path d="M1304.2 623.954C1305.64 623.954 1306.73 624.57 1307.46 625.802C1308.21 627.02 1308.59 628.793 1308.59 631.122C1308.59 633.451 1308.21 635.231 1307.46 636.463C1306.73 637.695 1305.64 638.311 1304.2 638.311C1302.78 638.311 1301.69 637.695 1300.94 636.463C1300.19 635.231 1299.81 633.451 1299.81 631.122C1299.81 628.807 1300.19 627.034 1300.94 625.802C1301.69 624.57 1302.78 623.954 1304.2 623.954ZM1301.24 631.122C1301.24 632.774 1301.39 634.067 1301.69 635.001L1306.15 626.005C1305.68 625.368 1305.03 625.05 1304.2 625.05C1303.28 625.05 1302.55 625.551 1302.03 626.553C1301.5 627.541 1301.24 629.064 1301.24 631.122ZM1304.2 637.194C1305.14 637.194 1305.87 636.7 1306.4 635.711C1306.92 634.71 1307.18 633.18 1307.18 631.122C1307.18 629.376 1307.01 628.022 1306.68 627.061L1302.21 636.138C1302.69 636.842 1303.36 637.194 1304.2 637.194Z" fill="url(#paint93_linear_175_194)"/>
</g>
<defs>
<filter id="filter0_f_175_194" x="-380.19" y="0.809998" width="2150.38" height="1513.13" filterUnits="userSpaceOnUse" color-interpolation-filters="sRGB">
<feFlood flood-opacity="0" result="BackgroundImageFix"/>
<feBlend mode="normal" in="SourceGraphic" in2="BackgroundImageFix" result="shape"/>
<feGaussianBlur stdDeviation="200.095" result="effect1_foregroundBlur_175_194"/>
</filter>
<linearGradient id="paint0_linear_175_194" x1="93.9931" y1="952.876" x2="93.9931" y2="1269.93" gradientUnits="userSpaceOnUse">
<stop stop-color="#F7DD43"/>
<stop offset="1" stop-color="#F7DD43" stop-opacity="0"/>
</linearGradient>
<linearGradient id="paint1_linear_175_194" x1="93.9931" y1="952.876" x2="93.9931" y2="1269.93" gradientUnits="userSpaceOnUse">
<stop stop-color="#F7DD43"/>
<stop offset="1" stop-color="#F7DD43" stop-opacity="0"/>
</linearGradient>
<linearGradient id="paint2_linear_175_194" x1="93.9931" y1="952.876" x2="93.9931" y2="1269.93" gradientUnits="userSpaceOnUse">
<stop stop-color="#F7DD43"/>
<stop offset="1" stop-color="#F7DD43" stop-opacity="0"/>
</linearGradient>
<linearGradient id="paint3_linear_175_194" x1="93.9931" y1="952.876" x2="93.9931" y2="1269.93" gradientUnits="userSpaceOnUse">
<stop stop-color="#F7DD43"/>
<stop offset="1" stop-color="#F7DD43" stop-opacity="0"/>
</linearGradient>
<linearGradient id="paint4_linear_175_194" x1="93.9931" y1="952.876" x2="93.9931" y2="1269.93" gradientUnits="userSpaceOnUse">
<stop stop-color="#F7DD43"/>
<stop offset="1" stop-color="#F7DD43" stop-opacity="0"/>
</linearGradient>
<linearGradient id="paint5_linear_175_194" x1="93.9931" y1="952.876" x2="93.9931" y2="1269.93" gradientUnits="userSpaceOnUse">
<stop stop-color="#F7DD43"/>
<stop offset="1" stop-color="#F7DD43" stop-opacity="0"/>
</linearGradient>
<linearGradient id="paint6_linear_175_194" x1="93.9931" y1="952.876" x2="93.9931" y2="1269.93" gradientUnits="userSpaceOnUse">
<stop stop-color="#F7DD43"/>
<stop offset="1" stop-color="#F7DD43" stop-opacity="0"/>
</linearGradient>
<linearGradient id="paint7_linear_175_194" x1="93.9931" y1="952.876" x2="93.9931" y2="1269.93" gradientUnits="userSpaceOnUse">
<stop stop-color="#F7DD43"/>
<stop offset="1" stop-color="#F7DD43" stop-opacity="0"/>
</linearGradient>
<linearGradient id="paint8_linear_175_194" x1="93.9931" y1="952.876" x2="93.9931" y2="1269.93" gradientUnits="userSpaceOnUse">
<stop stop-color="#F7DD43"/>
<stop offset="1" stop-color="#F7DD43" stop-opacity="0"/>
</linearGradient>
<linearGradient id="paint9_linear_175_194" x1="93.9931" y1="952.876" x2="93.9931" y2="1269.93" gradientUnits="userSpaceOnUse">
<stop stop-color="#F7DD43"/>
<stop offset="1" stop-color="#F7DD43" stop-opacity="0"/>
</linearGradient>
<linearGradient id="paint10_linear_175_194" x1="93.9931" y1="952.876" x2="93.9931" y2="1269.93" gradientUnits="userSpaceOnUse">
<stop stop-color="#F7DD43"/>
<stop offset="1" stop-color="#F7DD43" stop-opacity="0"/>
</linearGradient>
<linearGradient id="paint11_linear_175_194" x1="93.9931" y1="952.876" x2="93.9931" y2="1269.93" gradientUnits="userSpaceOnUse">
<stop stop-color="#F7DD43"/>
<stop offset="1" stop-color="#F7DD43" stop-opacity="0"/>
</linearGradient>
<linearGradient id="paint12_linear_175_194" x1="93.9931" y1="952.876" x2="93.9931" y2="1269.93" gradientUnits="userSpaceOnUse">
<stop stop-color="#F7DD43"/>
<stop offset="1" stop-color="#F7DD43" stop-opacity="0"/>
</linearGradient>
<linearGradient id="paint13_linear_175_194" x1="93.9931" y1="952.876" x2="93.9931" y2="1269.93" gradientUnits="userSpaceOnUse">
<stop stop-color="#F7DD43"/>
<stop offset="1" stop-color="#F7DD43" stop-opacity="0"/>
</linearGradient>
<linearGradient id="paint14_linear_175_194" x1="93.9931" y1="952.876" x2="93.9931" y2="1269.93" gradientUnits="userSpaceOnUse">
<stop stop-color="#F7DD43"/>
<stop offset="1" stop-color="#F7DD43" stop-opacity="0"/>
</linearGradient>
<linearGradient id="paint15_linear_175_194" x1="93.9931" y1="952.876" x2="93.9931" y2="1269.93" gradientUnits="userSpaceOnUse">
<stop stop-color="#F7DD43"/>
<stop offset="1" stop-color="#F7DD43" stop-opacity="0"/>
</linearGradient>
<linearGradient id="paint16_linear_175_194" x1="93.9931" y1="952.876" x2="93.9931" y2="1269.93" gradientUnits="userSpaceOnUse">
<stop stop-color="#F7DD43"/>
<stop offset="1" stop-color="#F7DD43" stop-opacity="0"/>
</linearGradient>
<linearGradient id="paint17_linear_175_194" x1="93.9931" y1="952.876" x2="93.9931" y2="1269.93" gradientUnits="userSpaceOnUse">
<stop stop-color="#F7DD43"/>
<stop offset="1" stop-color="#F7DD43" stop-opacity="0"/>
</linearGradient>
<linearGradient id="paint18_linear_175_194" x1="93.9931" y1="952.876" x2="93.9931" y2="1269.93" gradientUnits="userSpaceOnUse">
<stop stop-color="#F7DD43"/>
<stop offset="1" stop-color="#F7DD43" stop-opacity="0"/>
</linearGradient>
<linearGradient id="paint19_linear_175_194" x1="93.9931" y1="952.876" x2="93.9931" y2="1269.93" gradientUnits="userSpaceOnUse">
<stop stop-color="#F7DD43"/>
<stop offset="1" stop-color="#F7DD43" stop-opacity="0"/>
</linearGradient>
<linearGradient id="paint20_linear_175_194" x1="93.9931" y1="952.876" x2="93.9931" y2="1269.93" gradientUnits="userSpaceOnUse">
<stop stop-color="#F7DD43"/>
<stop offset="1" stop-color="#F7DD43" stop-opacity="0"/>
</linearGradient>
<linearGradient id="paint21_linear_175_194" x1="93.9931" y1="952.876" x2="93.9931" y2="1269.93" gradientUnits="userSpaceOnUse">
<stop stop-color="#F7DD43"/>
<stop offset="1" stop-color="#F7DD43" stop-opacity="0"/>
</linearGradient>
<linearGradient id="paint22_linear_175_194" x1="93.9931" y1="952.876" x2="93.9931" y2="1269.93" gradientUnits="userSpaceOnUse">
<stop stop-color="#F7DD43"/>
<stop offset="1" stop-color="#F7DD43" stop-opacity="0"/>
</linearGradient>
<linearGradient id="paint23_linear_175_194" x1="93.9931" y1="952.876" x2="93.9931" y2="1269.93" gradientUnits="userSpaceOnUse">
<stop stop-color="#F7DD43"/>
<stop offset="1" stop-color="#F7DD43" stop-opacity="0"/>
</linearGradient>
<linearGradient id="paint24_linear_175_194" x1="93.9931" y1="952.876" x2="93.9931" y2="1269.93" gradientUnits="userSpaceOnUse">
<stop stop-color="#F7DD43"/>
<stop offset="1" stop-color="#F7DD43" stop-opacity="0"/>
</linearGradient>
<linearGradient id="paint25_linear_175_194" x1="93.9931" y1="952.876" x2="93.9931" y2="1269.93" gradientUnits="userSpaceOnUse">
<stop stop-color="#F7DD43"/>
<stop offset="1" stop-color="#F7DD43" stop-opacity="0"/>
</linearGradient>
<linearGradient id="paint26_linear_175_194" x1="93.9931" y1="952.876" x2="93.9931" y2="1269.93" gradientUnits="userSpaceOnUse">
<stop stop-color="#F7DD43"/>
<stop offset="1" stop-color="#F7DD43" stop-opacity="0"/>
</linearGradient>
<linearGradient id="paint27_linear_175_194" x1="93.9931" y1="952.876" x2="93.9931" y2="1269.93" gradientUnits="userSpaceOnUse">
<stop stop-color="#F7DD43"/>
<stop offset="1" stop-color="#F7DD43" stop-opacity="0"/>
</linearGradient>
<linearGradient id="paint28_linear_175_194" x1="93.9931" y1="952.876" x2="93.9931" y2="1269.93" gradientUnits="userSpaceOnUse">
<stop stop-color="#F7DD43"/>
<stop offset="1" stop-color="#F7DD43" stop-opacity="0"/>
</linearGradient>
<linearGradient id="paint29_linear_175_194" x1="93.9931" y1="952.876" x2="93.9931" y2="1269.93" gradientUnits="userSpaceOnUse">
<stop stop-color="#F7DD43"/>
<stop offset="1" stop-color="#F7DD43" stop-opacity="0"/>
</linearGradient>
<linearGradient id="paint30_linear_175_194" x1="93.9931" y1="952.876" x2="93.9931" y2="1269.93" gradientUnits="userSpaceOnUse">
<stop stop-color="#F7DD43"/>
<stop offset="1" stop-color="#F7DD43" stop-opacity="0"/>
</linearGradient>
<linearGradient id="paint31_linear_175_194" x1="93.9931" y1="952.876" x2="93.9931" y2="1269.93" gradientUnits="userSpaceOnUse">
<stop stop-color="#F7DD43"/>
<stop offset="1" stop-color="#F7DD43" stop-opacity="0"/>
</linearGradient>
<linearGradient id="paint32_linear_175_194" x1="93.9931" y1="952.876" x2="93.9931" y2="1269.93" gradientUnits="userSpaceOnUse">
<stop stop-color="#F7DD43"/>
<stop offset="1" stop-color="#F7DD43" stop-opacity="0"/>
</linearGradient>
<linearGradient id="paint33_linear_175_194" x1="93.9931" y1="952.876" x2="93.9931" y2="1269.93" gradientUnits="userSpaceOnUse">
<stop stop-color="#F7DD43"/>
<stop offset="1" stop-color="#F7DD43" stop-opacity="0"/>
</linearGradient>
<linearGradient id="paint34_linear_175_194" x1="93.9931" y1="952.876" x2="93.9931" y2="1269.93" gradientUnits="userSpaceOnUse">
<stop stop-color="#F7DD43"/>
<stop offset="1" stop-color="#F7DD43" stop-opacity="0"/>
</linearGradient>
<linearGradient id="paint35_linear_175_194" x1="93.9931" y1="952.876" x2="93.9931" y2="1269.93" gradientUnits="userSpaceOnUse">
<stop stop-color="#F7DD43"/>
<stop offset="1" stop-color="#F7DD43" stop-opacity="0"/>
</linearGradient>
<linearGradient id="paint36_linear_175_194" x1="93.9931" y1="952.876" x2="93.9931" y2="1269.93" gradientUnits="userSpaceOnUse">
<stop stop-color="#F7DD43"/>
<stop offset="1" stop-color="#F7DD43" stop-opacity="0"/>
</linearGradient>
<linearGradient id="paint37_linear_175_194" x1="93.9931" y1="952.876" x2="93.9931" y2="1269.93" gradientUnits="userSpaceOnUse">
<stop stop-color="#F7DD43"/>
<stop offset="1" stop-color="#F7DD43" stop-opacity="0"/>
</linearGradient>
<linearGradient id="paint38_linear_175_194" x1="93.9931" y1="952.876" x2="93.9931" y2="1269.93" gradientUnits="userSpaceOnUse">
<stop stop-color="#F7DD43"/>
<stop offset="1" stop-color="#F7DD43" stop-opacity="0"/>
</linearGradient>
<linearGradient id="paint39_linear_175_194" x1="93.9931" y1="952.876" x2="93.9931" y2="1269.93" gradientUnits="userSpaceOnUse">
<stop stop-color="#F7DD43"/>
<stop offset="1" stop-color="#F7DD43" stop-opacity="0"/>
</linearGradient>
<linearGradient id="paint40_linear_175_194" x1="93.9931" y1="952.876" x2="93.9931" y2="1269.93" gradientUnits="userSpaceOnUse">
<stop stop-color="#F7DD43"/>
<stop offset="1" stop-color="#F7DD43" stop-opacity="0"/>
</linearGradient>
<linearGradient id="paint41_linear_175_194" x1="93.9931" y1="952.876" x2="93.9931" y2="1269.93" gradientUnits="userSpaceOnUse">
<stop stop-color="#F7DD43"/>
<stop offset="1" stop-color="#F7DD43" stop-opacity="0"/>
</linearGradient>
<linearGradient id="paint42_linear_175_194" x1="93.9931" y1="952.876" x2="93.9931" y2="1269.93" gradientUnits="userSpaceOnUse">
<stop stop-color="#F7DD43"/>
<stop offset="1" stop-color="#F7DD43" stop-opacity="0"/>
</linearGradient>
<linearGradient id="paint43_linear_175_194" x1="93.9931" y1="952.876" x2="93.9931" y2="1269.93" gradientUnits="userSpaceOnUse">
<stop stop-color="#F7DD43"/>
<stop offset="1" stop-color="#F7DD43" stop-opacity="0"/>
</linearGradient>
<linearGradient id="paint44_linear_175_194" x1="93.9931" y1="952.876" x2="93.9931" y2="1269.93" gradientUnits="userSpaceOnUse">
<stop stop-color="#F7DD43"/>
<stop offset="1" stop-color="#F7DD43" stop-opacity="0"/>
</linearGradient>
<linearGradient id="paint45_linear_175_194" x1="93.9931" y1="952.876" x2="93.9931" y2="1269.93" gradientUnits="userSpaceOnUse">
<stop stop-color="#F7DD43"/>
<stop offset="1" stop-color="#F7DD43" stop-opacity="0"/>
</linearGradient>
<linearGradient id="paint46_linear_175_194" x1="93.9931" y1="952.876" x2="93.9931" y2="1269.93" gradientUnits="userSpaceOnUse">
<stop stop-color="#F7DD43"/>
<stop offset="1" stop-color="#F7DD43" stop-opacity="0"/>
</linearGradient>
<linearGradient id="paint47_linear_175_194" x1="1266.81" y1="507.913" x2="1266.81" y2="812.176" gradientUnits="userSpaceOnUse">
<stop stop-color="#F7DD43"/>
<stop offset="1" stop-color="#F7DD43" stop-opacity="0"/>
</linearGradient>
<linearGradient id="paint48_linear_175_194" x1="1266.81" y1="507.913" x2="1266.81" y2="812.176" gradientUnits="userSpaceOnUse">
<stop stop-color="#F7DD43"/>
<stop offset="1" stop-color="#F7DD43" stop-opacity="0"/>
</linearGradient>
<linearGradient id="paint49_linear_175_194" x1="1266.81" y1="507.913" x2="1266.81" y2="812.176" gradientUnits="userSpaceOnUse">
<stop stop-color="#F7DD43"/>
<stop offset="1" stop-color="#F7DD43" stop-opacity="0"/>
</linearGradient>
<linearGradient id="paint50_linear_175_194" x1="1266.81" y1="507.913" x2="1266.81" y2="812.176" gradientUnits="userSpaceOnUse">
<stop stop-color="#F7DD43"/>
<stop offset="1" stop-color="#F7DD43" stop-opacity="0"/>
</linearGradient>
<linearGradient id="paint51_linear_175_194" x1="1266.81" y1="507.913" x2="1266.81" y2="812.176" gradientUnits="userSpaceOnUse">
<stop stop-color="#F7DD43"/>
<stop offset="1" stop-color="#F7DD43" stop-opacity="0"/>
</linearGradient>
<linearGradient id="paint52_linear_175_194" x1="1266.81" y1="507.913" x2="1266.81" y2="812.176" gradientUnits="userSpaceOnUse">
<stop stop-color="#F7DD43"/>
<stop offset="1" stop-color="#F7DD43" stop-opacity="0"/>
</linearGradient>
<linearGradient id="paint53_linear_175_194" x1="1266.81" y1="507.913" x2="1266.81" y2="812.176" gradientUnits="userSpaceOnUse">
<stop stop-color="#F7DD43"/>
<stop offset="1" stop-color="#F7DD43" stop-opacity="0"/>
</linearGradient>
<linearGradient id="paint54_linear_175_194" x1="1266.81" y1="507.913" x2="1266.81" y2="812.176" gradientUnits="userSpaceOnUse">
<stop stop-color="#F7DD43"/>
<stop offset="1" stop-color="#F7DD43" stop-opacity="0"/>
</linearGradient>
<linearGradient id="paint55_linear_175_194" x1="1266.81" y1="507.913" x2="1266.81" y2="812.176" gradientUnits="userSpaceOnUse">
<stop stop-color="#F7DD43"/>
<stop offset="1" stop-color="#F7DD43" stop-opacity="0"/>
</linearGradient>
<linearGradient id="paint56_linear_175_194" x1="1266.81" y1="507.913" x2="1266.81" y2="812.176" gradientUnits="userSpaceOnUse">
<stop stop-color="#F7DD43"/>
<stop offset="1" stop-color="#F7DD43" stop-opacity="0"/>
</linearGradient>
<linearGradient id="paint57_linear_175_194" x1="1266.81" y1="507.913" x2="1266.81" y2="812.176" gradientUnits="userSpaceOnUse">
<stop stop-color="#F7DD43"/>
<stop offset="1" stop-color="#F7DD43" stop-opacity="0"/>
</linearGradient>
<linearGradient id="paint58_linear_175_194" x1="1266.81" y1="507.913" x2="1266.81" y2="812.176" gradientUnits="userSpaceOnUse">
<stop stop-color="#F7DD43"/>
<stop offset="1" stop-color="#F7DD43" stop-opacity="0"/>
</linearGradient>
<linearGradient id="paint59_linear_175_194" x1="1266.81" y1="507.913" x2="1266.81" y2="812.176" gradientUnits="userSpaceOnUse">
<stop stop-color="#F7DD43"/>
<stop offset="1" stop-color="#F7DD43" stop-opacity="0"/>
</linearGradient>
<linearGradient id="paint60_linear_175_194" x1="1266.81" y1="507.913" x2="1266.81" y2="812.176" gradientUnits="userSpaceOnUse">
<stop stop-color="#F7DD43"/>
<stop offset="1" stop-color="#F7DD43" stop-opacity="0"/>
</linearGradient>
<linearGradient id="paint61_linear_175_194" x1="1266.81" y1="507.913" x2="1266.81" y2="812.176" gradientUnits="userSpaceOnUse">
<stop stop-color="#F7DD43"/>
<stop offset="1" stop-color="#F7DD43" stop-opacity="0"/>
</linearGradient>
<linearGradient id="paint62_linear_175_194" x1="1266.81" y1="507.913" x2="1266.81" y2="812.176" gradientUnits="userSpaceOnUse">
<stop stop-color="#F7DD43"/>
<stop offset="1" stop-color="#F7DD43" stop-opacity="0"/>
</linearGradient>
<linearGradient id="paint63_linear_175_194" x1="1266.81" y1="507.913" x2="1266.81" y2="812.176" gradientUnits="userSpaceOnUse">
<stop stop-color="#F7DD43"/>
<stop offset="1" stop-color="#F7DD43" stop-opacity="0"/>
</linearGradient>
<linearGradient id="paint64_linear_175_194" x1="1266.81" y1="507.913" x2="1266.81" y2="812.176" gradientUnits="userSpaceOnUse">
<stop stop-color="#F7DD43"/>
<stop offset="1" stop-color="#F7DD43" stop-opacity="0"/>
</linearGradient>
<linearGradient id="paint65_linear_175_194" x1="1266.81" y1="507.913" x2="1266.81" y2="812.176" gradientUnits="userSpaceOnUse">
<stop stop-color="#F7DD43"/>
<stop offset="1" stop-color="#F7DD43" stop-opacity="0"/>
</linearGradient>
<linearGradient id="paint66_linear_175_194" x1="1266.81" y1="507.913" x2="1266.81" y2="812.176" gradientUnits="userSpaceOnUse">
<stop stop-color="#F7DD43"/>
<stop offset="1" stop-color="#F7DD43" stop-opacity="0"/>
</linearGradient>
<linearGradient id="paint67_linear_175_194" x1="1266.81" y1="507.913" x2="1266.81" y2="812.176" gradientUnits="userSpaceOnUse">
<stop stop-color="#F7DD43"/>
<stop offset="1" stop-color="#F7DD43" stop-opacity="0"/>
</linearGradient>
<linearGradient id="paint68_linear_175_194" x1="1266.81" y1="507.913" x2="1266.81" y2="812.176" gradientUnits="userSpaceOnUse">
<stop stop-color="#F7DD43"/>
<stop offset="1" stop-color="#F7DD43" stop-opacity="0"/>
</linearGradient>
<linearGradient id="paint69_linear_175_194" x1="1266.81" y1="507.913" x2="1266.81" y2="812.176" gradientUnits="userSpaceOnUse">
<stop stop-color="#F7DD43"/>
<stop offset="1" stop-color="#F7DD43" stop-opacity="0"/>
</linearGradient>
<linearGradient id="paint70_linear_175_194" x1="1266.81" y1="507.913" x2="1266.81" y2="812.176" gradientUnits="userSpaceOnUse">
<stop stop-color="#F7DD43"/>
<stop offset="1" stop-color="#F7DD43" stop-opacity="0"/>
</linearGradient>
<linearGradient id="paint71_linear_175_194" x1="1266.81" y1="507.913" x2="1266.81" y2="812.176" gradientUnits="userSpaceOnUse">
<stop stop-color="#F7DD43"/>
<stop offset="1" stop-color="#F7DD43" stop-opacity="0"/>
</linearGradient>
<linearGradient id="paint72_linear_175_194" x1="1266.81" y1="507.913" x2="1266.81" y2="812.176" gradientUnits="userSpaceOnUse">
<stop stop-color="#F7DD43"/>
<stop offset="1" stop-color="#F7DD43" stop-opacity="0"/>
</linearGradient>
<linearGradient id="paint73_linear_175_194" x1="1266.81" y1="507.913" x2="1266.81" y2="812.176" gradientUnits="userSpaceOnUse">
<stop stop-color="#F7DD43"/>
<stop offset="1" stop-color="#F7DD43" stop-opacity="0"/>
</linearGradient>
<linearGradient id="paint74_linear_175_194" x1="1266.81" y1="507.913" x2="1266.81" y2="812.176" gradientUnits="userSpaceOnUse">
<stop stop-color="#F7DD43"/>
<stop offset="1" stop-color="#F7DD43" stop-opacity="0"/>
</linearGradient>
<linearGradient id="paint75_linear_175_194" x1="1266.81" y1="507.913" x2="1266.81" y2="812.176" gradientUnits="userSpaceOnUse">
<stop stop-color="#F7DD43"/>
<stop offset="1" stop-color="#F7DD43" stop-opacity="0"/>
</linearGradient>
<linearGradient id="paint76_linear_175_194" x1="1266.81" y1="507.913" x2="1266.81" y2="812.176" gradientUnits="userSpaceOnUse">
<stop stop-color="#F7DD43"/>
<stop offset="1" stop-color="#F7DD43" stop-opacity="0"/>
</linearGradient>
<linearGradient id="paint77_linear_175_194" x1="1266.81" y1="507.913" x2="1266.81" y2="812.176" gradientUnits="userSpaceOnUse">
<stop stop-color="#F7DD43"/>
<stop offset="1" stop-color="#F7DD43" stop-opacity="0"/>
</linearGradient>
<linearGradient id="paint78_linear_175_194" x1="1266.81" y1="507.913" x2="1266.81" y2="812.176" gradientUnits="userSpaceOnUse">
<stop stop-color="#F7DD43"/>
<stop offset="1" stop-color="#F7DD43" stop-opacity="0"/>
</linearGradient>
<linearGradient id="paint79_linear_175_194" x1="1266.81" y1="507.913" x2="1266.81" y2="812.176" gradientUnits="userSpaceOnUse">
<stop stop-color="#F7DD43"/>
<stop offset="1" stop-color="#F7DD43" stop-opacity="0"/>
</linearGradient>
<linearGradient id="paint80_linear_175_194" x1="1266.81" y1="507.913" x2="1266.81" y2="812.176" gradientUnits="userSpaceOnUse">
<stop stop-color="#F7DD43"/>
<stop offset="1" stop-color="#F7DD43" stop-opacity="0"/>
</linearGradient>
<linearGradient id="paint81_linear_175_194" x1="1266.81" y1="507.913" x2="1266.81" y2="812.176" gradientUnits="userSpaceOnUse">
<stop stop-color="#F7DD43"/>
<stop offset="1" stop-color="#F7DD43" stop-opacity="0"/>
</linearGradient>
<linearGradient id="paint82_linear_175_194" x1="1266.81" y1="507.913" x2="1266.81" y2="812.176" gradientUnits="userSpaceOnUse">
<stop stop-color="#F7DD43"/>
<stop offset="1" stop-color="#F7DD43" stop-opacity="0"/>
</linearGradient>
<linearGradient id="paint83_linear_175_194" x1="1266.81" y1="507.913" x2="1266.81" y2="812.176" gradientUnits="userSpaceOnUse">
<stop stop-color="#F7DD43"/>
<stop offset="1" stop-color="#F7DD43" stop-opacity="0"/>
</linearGradient>
<linearGradient id="paint84_linear_175_194" x1="1266.81" y1="507.913" x2="1266.81" y2="812.176" gradientUnits="userSpaceOnUse">
<stop stop-color="#F7DD43"/>
<stop offset="1" stop-color="#F7DD43" stop-opacity="0"/>
</linearGradient>
<linearGradient id="paint85_linear_175_194" x1="1266.81" y1="507.913" x2="1266.81" y2="812.176" gradientUnits="userSpaceOnUse">
<stop stop-color="#F7DD43"/>
<stop offset="1" stop-color="#F7DD43" stop-opacity="0"/>
</linearGradient>
<linearGradient id="paint86_linear_175_194" x1="1266.81" y1="507.913" x2="1266.81" y2="812.176" gradientUnits="userSpaceOnUse">
<stop stop-color="#F7DD43"/>
<stop offset="1" stop-color="#F7DD43" stop-opacity="0"/>
</linearGradient>
<linearGradient id="paint87_linear_175_194" x1="1266.81" y1="507.913" x2="1266.81" y2="812.176" gradientUnits="userSpaceOnUse">
<stop stop-color="#F7DD43"/>
<stop offset="1" stop-color="#F7DD43" stop-opacity="0"/>
</linearGradient>
<linearGradient id="paint88_linear_175_194" x1="1266.81" y1="507.913" x2="1266.81" y2="812.176" gradientUnits="userSpaceOnUse">
<stop stop-color="#F7DD43"/>
<stop offset="1" stop-color="#F7DD43" stop-opacity="0"/>
</linearGradient>
<linearGradient id="paint89_linear_175_194" x1="1266.81" y1="507.913" x2="1266.81" y2="812.176" gradientUnits="userSpaceOnUse">
<stop stop-color="#F7DD43"/>
<stop offset="1" stop-color="#F7DD43" stop-opacity="0"/>
</linearGradient>
<linearGradient id="paint90_linear_175_194" x1="1266.81" y1="507.913" x2="1266.81" y2="812.176" gradientUnits="userSpaceOnUse">
<stop stop-color="#F7DD43"/>
<stop offset="1" stop-color="#F7DD43" stop-opacity="0"/>
</linearGradient>
<linearGradient id="paint91_linear_175_194" x1="1266.81" y1="507.913" x2="1266.81" y2="812.176" gradientUnits="userSpaceOnUse">
<stop stop-color="#F7DD43"/>
<stop offset="1" stop-color="#F7DD43" stop-opacity="0"/>
</linearGradient>
<linearGradient id="paint92_linear_175_194" x1="1266.81" y1="507.913" x2="1266.81" y2="812.176" gradientUnits="userSpaceOnUse">
<stop stop-color="#F7DD43"/>
<stop offset="1" stop-color="#F7DD43" stop-opacity="0"/>
</linearGradient>
<linearGradient id="paint93_linear_175_194" x1="1266.81" y1="507.913" x2="1266.81" y2="812.176" gradientUnits="userSpaceOnUse">
<stop stop-color="#F7DD43"/>
<stop offset="1" stop-color="#F7DD43" stop-opacity="0"/>
</linearGradient>
</defs>
</svg>
